<?xml version="1.0" encoding="UTF-8" standalone="no"?>
<!-- Created with Inkscape (http://www.inkscape.org/) -->

<svg
   xmlns:dc="http://purl.org/dc/elements/1.1/"
   xmlns:cc="http://creativecommons.org/ns#"
   xmlns:rdf="http://www.w3.org/1999/02/22-rdf-syntax-ns#"
   xmlns:svg="http://www.w3.org/2000/svg"
   xmlns="http://www.w3.org/2000/svg"
   xmlns:sodipodi="http://sodipodi.sourceforge.net/DTD/sodipodi-0.dtd"
   xmlns:inkscape="http://www.inkscape.org/namespaces/inkscape"
   id="svg2"
   version="1.1"
   inkscape:version="0.91 r13725"
   width="256"
   height="256"
   viewBox="-257 -1 0 1"
   sodipodi:docname="symbols.raw.svg">
  <metadata
     id="metadata8">
    <rdf:RDF>
      <cc:Work
         rdf:about="">
        <dc:format>image/svg+xml</dc:format>
        <dc:type
           rdf:resource="http://purl.org/dc/dcmitype/StillImage" />
        <dc:title />
      </cc:Work>
    </rdf:RDF>
  </metadata>
  <defs
     id="defs6" />
  <sodipodi:namedview
     pagecolor="#ffffff"
     bordercolor="#666666"
     borderopacity="1"
     objecttolerance="10"
     gridtolerance="10"
     guidetolerance="10"
     inkscape:pageopacity="0"
     inkscape:pageshadow="2"
     inkscape:window-width="1366"
     inkscape:window-height="744"
     id="namedview4"
     showgrid="false"
     inkscape:zoom="0.25"
     inkscape:cx="-340"
     inkscape:cy="-75.716485"
     inkscape:window-x="0"
     inkscape:window-y="24"
     inkscape:window-maximized="1"
     inkscape:current-layer="svg2"
     inkscape:object-paths="false"
     inkscape:snap-bbox="true"
     inkscape:bbox-nodes="true"
     inkscape:snap-nodes="true"
     inkscape:snap-global="false"
     inkscape:bbox-paths="false"
     inkscape:snap-bbox-edge-midpoints="false"
     inkscape:snap-bbox-midpoints="false"
     inkscape:snap-page="true"
     inkscape:snap-object-midpoints="false" />
  <rect
     id="rect3386-9-2"
     width="256"
     height="256"
     x="-1544"
     y="-267"
     class="background" />
  <rect
     id="rect8"
     y="-267"
     x="-1544"
     height="256"
     width="256"
     class="border" />
  <g
     id="icon_spin"
     class="icon"
     style="fill:#000000">
    <path
       id="path4168"
       d="m -381.98242,-860.25195 c -31.89523,0 -60.78108,13.60594 -81.15039,35.29101 l 25.86914,44.80469 c 10.83364,-19.23698 31.40448,-32.0957 55.28125,-32.0957 35.32207,0 63.44336,28.11933 63.44336,63.4414 0,35.32207 -28.12129,63.44141 -63.44336,63.44141 -35.32207,0 -63.44141,-28.11934 -63.44141,-63.44141 0,-3.98423 0.37698,-7.8697 1.0625,-11.64062 l -21.99414,-38.09375 -27.0293,46.81836 c -0.0253,0.9692 -0.0391,1.94104 -0.0391,2.91601 0,61.2632 50.17821,111.44141 111.44141,111.44141 61.26319,0 111.44336,-50.17821 111.44336,-111.44141 0,-61.26319 -50.18017,-111.4414 -111.44336,-111.4414 z"
       style="fill:#000000" />
    <path
       inkscape:transform-center-y="-16.049934"
       d="m -410.75632,-718.24486 -111.1972,0 55.5986,-96.2996 z"
       inkscape:randomized="0"
       inkscape:rounded="0"
       inkscape:flatsided="true"
       sodipodi:arg2="1.5707963"
       sodipodi:arg1="0.52359878"
       sodipodi:r2="32.099869"
       sodipodi:r1="64.199738"
       sodipodi:cy="-750.34473"
       sodipodi:cx="-466.35492"
       sodipodi:sides="3"
       id="path4176"
       style="opacity:1;fill:#000000;fill-opacity:1;stroke:none;stroke-width:1.23086786;stroke-linejoin:round;stroke-miterlimit:4;stroke-dasharray:none;stroke-opacity:1"
       sodipodi:type="star" />
  </g>
  <rect
     style="opacity:1;fill:#00604b;fill-opacity:1;stroke:none;stroke-width:16;stroke-linejoin:miter;stroke-miterlimit:4;stroke-dasharray:none;stroke-opacity:1"
     id="rect3386-9-9"
     width="256"
     height="256"
     x="-1249"
     y="-256.45584"
     class="background" />
  <rect
     y="-256.45584"
     x="-1249"
     height="256"
     width="256"
     id="rect4329"
     style="opacity:1;fill:none;fill-opacity:1;stroke:#000000;stroke-width:16;stroke-linejoin:miter;stroke-miterlimit:4;stroke-dasharray:none;stroke-opacity:1"
     class="border" />
  <path
     id="path18"
     inkscape:connector-curvature="0"
     style="font-style:normal;font-variant:normal;font-weight:bold;font-stretch:normal;font-size:medium;line-height:125%;font-family:'DejaVu Sans';-inkscape-font-specification:'DejaVu Sans, Bold';text-align:start;letter-spacing:0px;word-spacing:0px;writing-mode:lr-tb;text-anchor:start;fill:#ffffff;fill-opacity:1;stroke:none;stroke-width:1px;stroke-linecap:butt;stroke-linejoin:miter;stroke-opacity:1"
     d="m -1120.8718,-121.83352 q -9.2285,0 -14.1846,5.0415 -4.9561,5.0415 -4.9561,14.44092 0,9.399406 4.9561,14.440916 4.9561,4.95605 14.1846,4.95605 9.143,0 14.0136,-4.95605 4.8707,-5.04151 4.8707,-14.440916 0,-9.48487 -4.8707,-14.44092 -4.8706,-5.0415 -14.0136,-5.0415 z m -24.0113,-10.85206 q -11.6211,-3.50341 -17.517,-10.7666 -5.896,-7.26318 -5.896,-18.11523 0,-16.1499 12.0483,-24.60938 12.0483,-8.45947 35.376,-8.45947 23.1567,0 35.2051,8.45947 12.0483,8.37403 12.0483,24.60938 0,10.85205 -5.9815,18.11523 -5.896,7.26319 -17.517,10.7666 12.9882,3.58887 19.5678,11.70655 6.6651,8.03222 6.6651,20.33691 0,18.969726 -12.6465,28.710936 -12.5611,9.65576 -37.3413,9.65576 -24.8657,0 -37.5977,-9.65576 -12.6465,-9.74121 -12.6465,-28.710936 0,-12.30469 6.5796,-20.33691 6.6651,-8.11768 19.6533,-11.70655 z m 7.6905,-25.54931 q 0,7.60498 4.187,11.70654 4.2724,4.10156 12.1338,4.10156 7.6904,0 11.8774,-4.10156 4.187,-4.10156 4.187,-11.70654 0,-7.60498 -4.187,-11.6211 -4.187,-4.10156 -11.8774,-4.10156 -7.8614,0 -12.1338,4.10156 -4.187,4.10157 -4.187,11.6211 z"
     class="icon" />
  <rect
     style="opacity:1;fill:#00604b;fill-opacity:1;stroke:none;stroke-width:16;stroke-linejoin:miter;stroke-miterlimit:4;stroke-dasharray:none;stroke-opacity:1"
     id="rect3386-9"
     width="256"
     height="256"
     x="-962"
     y="-256.45584"
     class="background" />
  <rect
     y="-256.45584"
     x="-962"
     height="256"
     width="256"
     id="rect4331"
     style="opacity:1;fill:none;fill-opacity:1;stroke:#000000;stroke-width:16;stroke-linejoin:miter;stroke-miterlimit:4;stroke-dasharray:none;stroke-opacity:1"
     class="border" />
  <path
     id="path23"
     inkscape:connector-curvature="0"
     style="font-style:normal;font-variant:normal;font-weight:bold;font-stretch:normal;font-size:medium;line-height:125%;font-family:'DejaVu Sans';-inkscape-font-specification:'DejaVu Sans, Bold';text-align:start;letter-spacing:0px;word-spacing:0px;writing-mode:lr-tb;text-anchor:start;fill:#ffffff;fill-opacity:1;stroke:none;stroke-width:1px;stroke-linecap:butt;stroke-linejoin:miter;stroke-opacity:1"
     d="m -876.29736,-67.658724 0,-23.58399 q 7.86132,3.67432 15.03906,5.5542 7.17773,1.79444 14.18457,1.79444 14.69726,0 22.90039,-8.11768 8.20312,-8.203116 9.65576,-24.267576 -5.81055,4.27246 -12.39014,6.4087 -6.57958,2.13623 -14.27001,2.13623 -19.56788,0 -31.61622,-11.36475 -11.96289,-11.4502 -11.96289,-30.07813 0,-20.59326 13.33008,-32.98339 13.41553,-12.39014 35.88867,-12.39014 24.95118,0 38.62305,16.8335 13.67188,16.83349 13.67188,47.59521 0,31.616206 -15.97901,49.731446 -15.979,18.02978 -43.83545,18.02978 -8.97217,0 -17.17529,-1.36719 -8.20313,-1.28173 -16.06445,-3.93066 z m 40.58838,-61.437986 q 8.63037,0 12.98828,-5.5542 4.35791,-5.63965 4.35791,-16.83349 0,-11.1084 -4.35791,-16.74805 -4.35791,-5.63965 -12.98828,-5.63965 -8.63038,0 -12.98829,5.63965 -4.35791,5.63965 -4.35791,16.74805 0,11.19384 4.35791,16.83349 4.35791,5.5542 12.98829,5.5542 z"
     class="icon" />
  <rect
     style="opacity:1;fill:#00604b;fill-opacity:1;stroke:none;stroke-width:16;stroke-linejoin:miter;stroke-miterlimit:4;stroke-dasharray:none;stroke-opacity:1"
     id="rect3386-62"
     width="256"
     height="256"
     x="-675"
     y="-256.45584"
     class="background" />
  <rect
     y="-256.45584"
     x="-675"
     height="256"
     width="256"
     id="rect4333"
     style="opacity:1;fill:none;fill-opacity:1;stroke:#000000;stroke-width:16;stroke-linejoin:miter;stroke-miterlimit:4;stroke-dasharray:none;stroke-opacity:1"
     class="border" />
  <path
     id="path28"
     style="font-style:normal;font-variant:normal;font-weight:bold;font-stretch:normal;font-size:medium;line-height:125%;font-family:'DejaVu Sans';-inkscape-font-specification:'DejaVu Sans, Bold';text-align:start;letter-spacing:0px;word-spacing:0px;writing-mode:lr-tb;text-anchor:start;fill:#ffffff;fill-opacity:1;stroke:none;stroke-width:1px;stroke-linecap:butt;stroke-linejoin:miter;stroke-opacity:1"
     d="m -494.79885,-194.63553 c -16.80502,0 -29.76628,5.7526 -38.88086,17.25977 -9.11459,11.45019 -13.67188,27.77148 -13.67188,48.96289 0,21.13444 4.55729,37.455726 13.67188,48.962886 9.11458,11.45019 22.07584,17.17383 38.88086,17.17383 16.74804,0 29.67838,-5.72364 38.79296,-17.17383 9.11458,-11.50716 13.67188,-27.828446 13.67188,-48.962886 0,-21.19141 -4.5573,-37.5127 -13.67188,-48.96289 -9.11458,-11.50717 -22.04492,-17.25977 -38.79296,-17.25977 z m -127.21684,2.30664 -29.6503,6.15235 0,22.38672 29.8222,-6.15235 0,82.458986 -29.0527,0 0,22.73046 89.20897,0 0,-22.73046 -29.05277,0 0,-104.845706 -31.2754,0 z m 127.21684,20.16602 c 7.0638,0 12.07682,3.27506 15.03906,9.82617 3.0192,6.49414 4.52734,17.71745 4.52734,33.66797 0,16.12142 -1.50814,27.48568 -4.52734,34.093746 -3.01921,6.60807 -8.03223,9.91211 -15.03906,9.91211 -7.06381,0 -12.1058,-3.30404 -15.125,-9.91211 -3.01921,-6.608066 -4.5293,-17.972326 -4.5293,-34.093746 0,-15.95052 1.51009,-27.17383 4.5293,-33.66797 3.0192,-6.55111 8.06119,-9.82617 15.125,-9.82617 z"
     inkscape:connector-curvature="0"
     class="icon" />
  <rect
     style="opacity:1;fill:#00604b;fill-opacity:1;stroke:none;stroke-width:16;stroke-linejoin:miter;stroke-miterlimit:4;stroke-dasharray:none;stroke-opacity:1"
     id="rect3386-35"
     width="256"
     height="256"
     x="-388"
     y="-256.45584"
     class="background" />
  <rect
     y="-256.45584"
     x="-388"
     height="256"
     width="256"
     id="rect4335"
     style="opacity:1;fill:none;fill-opacity:1;stroke:#000000;stroke-width:16;stroke-linejoin:miter;stroke-miterlimit:4;stroke-dasharray:none;stroke-opacity:1"
     class="border" />
  <path
     id="path33"
     inkscape:connector-curvature="0"
     style="font-style:normal;font-variant:normal;font-weight:bold;font-stretch:normal;font-size:medium;line-height:125%;font-family:'DejaVu Sans';-inkscape-font-specification:'DejaVu Sans, Bold';text-align:start;letter-spacing:0px;word-spacing:0px;writing-mode:lr-tb;text-anchor:start;fill:#ffffff;fill-opacity:1;stroke:none;stroke-width:1px;stroke-linecap:butt;stroke-linejoin:miter;stroke-opacity:1"
     d="m -263.50345,-209.76077 32.898,0 0,115.185541 q 0,23.84033 -12.9883,35.63232 -12.9028,11.792 -39.1357,11.792 l -6.6651,0 0,-24.86573 5.127,0 q 10.2539,0 15.4663,-5.72509 5.2978,-5.7251 5.2978,-16.8335 l 0,-115.185541 z"
     class="icon" />
  <rect
     style="opacity:1;fill:#00604b;fill-opacity:1;stroke:none;stroke-width:16;stroke-linejoin:miter;stroke-miterlimit:4;stroke-dasharray:none;stroke-opacity:1"
     id="rect3386-5"
     width="256"
     height="256"
     x="-101"
     y="-256.45584"
     class="background" />
  <rect
     y="-256.45584"
     x="-101"
     height="256"
     width="256"
     id="rect4337"
     style="opacity:1;fill:none;fill-opacity:1;stroke:#000000;stroke-width:16;stroke-linejoin:miter;stroke-miterlimit:4;stroke-dasharray:none;stroke-opacity:1"
     class="border" />
  <path
     id="path38"
     inkscape:connector-curvature="0"
     style="font-style:normal;font-variant:normal;font-weight:bold;font-stretch:normal;font-size:medium;line-height:125%;font-family:'DejaVu Sans';-inkscape-font-specification:'DejaVu Sans, Bold';text-align:start;letter-spacing:0px;word-spacing:0px;writing-mode:lr-tb;text-anchor:start;fill:#ffffff;fill-opacity:1;stroke:none;stroke-width:1px;stroke-linecap:butt;stroke-linejoin:miter;stroke-opacity:1"
     d="m 30.503424,-73.981959 -2.56348,0 q -31.530759,0 -49.047844,-17.43165 -17.5171,-17.431641 -17.5171,-48.535151 0,-31.01806 17.43165,-48.62061 17.517085,-17.60254 48.193355,-17.60254 31.01807,0 48.27881,17.43164 17.34619,17.43165 17.34619,48.79151 0,21.5332 -9.22851,37.08496 -9.143071,15.551761 -26.40381,23.413091 l 25.72021,28.71093 -31.35986,0 -20.84961,-23.24218 z m -3.50342,-108.349601 q -15.039059,0 -23.327629,11.10839 -8.28858,11.10839 -8.28858,31.27441 0,20.50781 8.11768,31.44531 8.117671,10.852051 23.49853,10.852051 15.12451,0 23.41309,-11.108401 8.288569,-11.10839 8.288569,-31.18896 0,-20.16602 -8.288569,-31.27441 -8.28858,-11.10839 -23.41309,-11.10839 z"
     class="icon" />
  <rect
     style="opacity:1;fill:#00604b;fill-opacity:1;stroke:none;stroke-width:16;stroke-linejoin:miter;stroke-miterlimit:4;stroke-dasharray:none;stroke-opacity:1"
     id="rect3386-6-0"
     width="256"
     height="256"
     x="473"
     y="-256.45584"
     class="background" />
  <rect
     y="-256.45584"
     x="473"
     height="256"
     width="256"
     id="rect4339"
     style="opacity:1;fill:none;fill-opacity:1;stroke:#000000;stroke-width:16;stroke-linejoin:miter;stroke-miterlimit:4;stroke-dasharray:none;stroke-opacity:1"
     class="border" />
  <path
     id="path43"
     inkscape:connector-curvature="0"
     style="font-style:normal;font-variant:normal;font-weight:bold;font-stretch:normal;font-size:medium;line-height:125%;font-family:'DejaVu Sans';-inkscape-font-specification:'DejaVu Sans, Bold';text-align:start;letter-spacing:0px;word-spacing:0px;writing-mode:lr-tb;text-anchor:start;fill:#ffffff;fill-opacity:1;stroke:none;stroke-width:1px;stroke-linecap:butt;stroke-linejoin:miter;stroke-opacity:1"
     d="m 626.7629,-87.91019 -51.4404,0 -8.1177,23.24219 -33.0688,0 47.2534,-127.57569 39.2212,0 47.2534,127.57569 -33.0688,0 -8.0323,-23.24219 z m -43.2373,-23.66943 34.9488,0 -17.4317,-50.75683 -17.5171,50.75684 z"
     class="icon" />
  <rect
     style="opacity:1;fill:#00604b;fill-opacity:1;stroke:none;stroke-width:16;stroke-linejoin:miter;stroke-miterlimit:4;stroke-dasharray:none;stroke-opacity:1"
     id="rect3386-6"
     width="256"
     height="256"
     x="-1536"
     y="30.544155"
     class="background" />
  <rect
     y="30.544155"
     x="-1536"
     height="256"
     width="256"
     id="rect4341"
     style="opacity:1;fill:none;fill-opacity:1;stroke:#000000;stroke-width:16;stroke-linejoin:miter;stroke-miterlimit:4;stroke-dasharray:none;stroke-opacity:1"
     class="border" />
  <path
     id="path48"
     inkscape:connector-curvature="0"
     style="font-style:normal;font-variant:normal;font-weight:bold;font-stretch:normal;font-size:medium;line-height:125%;font-family:'DejaVu Sans';-inkscape-font-specification:'DejaVu Sans, Bold';text-align:start;letter-spacing:0px;word-spacing:0px;writing-mode:lr-tb;text-anchor:start;fill:#ffffff;fill-opacity:1;stroke:none;stroke-width:1px;stroke-linecap:butt;stroke-linejoin:miter;stroke-opacity:1"
     d="m -1499.1743,94.756316 31.5307,0 22.0459,92.712404 21.875,-92.712404 31.7017,0 21.875,92.712404 22.0459,-92.712404 31.2744,0 -30.0781,127.575684 -37.9395,0 -23.1567,-96.98486 -22.9004,96.98486 -37.9394,0 -30.3345,-127.575684 z"
     class="icon" />
  <rect
     style="opacity:1;fill:#00604b;fill-opacity:1;stroke:none;stroke-width:16;stroke-linejoin:miter;stroke-miterlimit:4;stroke-dasharray:none;stroke-opacity:1"
     id="rect3386-3"
     width="256"
     height="256"
     x="-1249"
     y="30.544155"
     class="background" />
  <rect
     y="30.544155"
     x="-1249"
     height="256"
     width="256"
     id="rect4343"
     style="opacity:1;fill:none;fill-opacity:1;stroke:#000000;stroke-width:16;stroke-linejoin:miter;stroke-miterlimit:4;stroke-dasharray:none;stroke-opacity:1"
     class="border" />
  <path
     id="path53"
     style="font-style:normal;font-variant:normal;font-weight:bold;font-stretch:normal;font-size:medium;line-height:125%;font-family:'DejaVu Sans';-inkscape-font-specification:'DejaVu Sans, Bold';text-align:start;letter-spacing:0px;word-spacing:0px;writing-mode:lr-tb;text-anchor:start;fill:#ffffff;fill-opacity:1;stroke:none;stroke-width:1px;stroke-linecap:butt;stroke-linejoin:miter;stroke-opacity:1"
     d="m -1075.586,92.363486 c -15.3808,0 -27.1718,3.41797 -35.375,10.253914 -8.2031,6.83594 -12.3047,16.6071 -12.3047,29.31054 0,10.13997 2.9333,18.2002 8.8008,24.18164 5.9245,5.98145 15.267,10.33986 28.0274,13.07422 l 12.7324,2.81837 c 7.7474,1.70899 12.9014,3.64582 15.4649,5.81054 2.6204,2.16471 3.9316,5.24088 3.9316,9.22852 0,4.44335 -1.9079,7.86132 -5.7246,10.2539 -3.8168,2.39258 -9.3145,3.58985 -16.4922,3.58985 -7.0638,0 -14.4134,-1.08334 -22.0469,-3.24804 -7.5765,-2.22169 -15.4378,-5.49676 -23.584,-9.82619 l 0,27.77149 c 8.1462,3.0192 16.2933,5.29785 24.4395,6.83594 8.1461,1.53808 16.2643,2.30664 24.3535,2.30664 17.1468,0 29.8783,-3.41797 38.1953,-10.25391 8.374,-6.8929 12.5606,-17.37467 12.5606,-31.44531 0,-10.70964 -2.9912,-18.96875 -8.9727,-24.7793 -5.9814,-5.81055 -16.0635,-10.13997 -30.248,-12.98828 l -14.0137,-2.82031 c -6.6651,-1.36719 -11.2803,-2.99122 -13.8438,-4.8711 -2.5065,-1.93685 -3.7597,-4.61328 -3.7597,-8.03125 0,-4.55729 1.8808,-7.91927 5.6406,-10.08398 3.7598,-2.16471 9.5703,-3.2461 17.4316,-3.2461 5.9245,1e-5 12.2198,0.79753 18.8848,2.39258 6.665,1.59506 13.501,3.95866 20.5078,7.0918 l 0,-27.001954 c -7.9183,-2.10775 -15.5807,-3.67384 -22.9863,-4.69922 -7.4056,-1.08235 -14.6123,-1.625 -21.6192,-1.625 z m -143.8066,2.3086 0,127.574214 32.8984,0 0,-54.08788 52.5508,0 0,-24.8672 -52.5508,0 0,-23.7539 55.8848,0 0,-24.865234 -88.7832,0 z"
     inkscape:connector-curvature="0"
     class="icon" />
  <rect
     style="opacity:1;fill:#00604b;fill-opacity:1;stroke:none;stroke-width:16;stroke-linejoin:miter;stroke-miterlimit:4;stroke-dasharray:none;stroke-opacity:1"
     id="rect3386"
     width="256"
     height="256"
     x="-962"
     y="30.544155"
     class="background" />
  <rect
     y="30.544155"
     x="-962"
     height="256"
     width="256"
     id="rect4345"
     style="opacity:1;fill:none;fill-opacity:1;stroke:#000000;stroke-width:16;stroke-linejoin:miter;stroke-miterlimit:4;stroke-dasharray:none;stroke-opacity:1"
     class="border" />
  <path
     id="path58"
     style="font-style:normal;font-variant:normal;font-weight:bold;font-stretch:normal;font-size:medium;line-height:125%;font-family:'DejaVu Sans';-inkscape-font-specification:'DejaVu Sans, Bold';text-align:start;letter-spacing:0px;word-spacing:0px;writing-mode:lr-tb;text-anchor:start;fill:#ffffff;fill-opacity:1;stroke:none;stroke-width:1px;stroke-linecap:butt;stroke-linejoin:miter;stroke-opacity:1"
     d="m -894.71874,92.363496 c -15.38086,0 -27.17188,3.41796 -35.375,10.253904 -8.20313,6.83594 -12.30469,16.6071 -12.30469,29.31054 0,10.13997 2.93327,18.2002 8.80078,24.18164 5.92448,5.98145 15.26693,10.33986 28.02735,13.07423 l 12.73242,2.81836 c 7.7474,1.70898 12.90137,3.64582 15.46484,5.81054 2.62045,2.16471 3.93164,5.24088 3.93164,9.22851 0,4.44336 -1.90787,7.86133 -5.7246,10.25391 -3.81674,2.39258 -9.31446,3.58984 -16.49219,3.58984 -7.0638,0 -14.41341,-1.08333 -22.04688,-3.24804 -7.57649,-2.22168 -15.43782,-5.49675 -23.58398,-9.82618 l 0,27.77149 c 8.14616,3.0192 16.2933,5.29785 24.43945,6.83594 8.14616,1.53808 16.26432,2.30664 24.35352,2.30664 17.14681,0 29.87826,-3.41797 38.19531,-10.25391 8.37403,-6.8929 12.56055,-17.37467 12.56055,-31.44531 0,-10.70964 -2.99121,-18.96875 -8.97266,-24.7793 -5.98145,-5.81055 -16.06348,-10.13997 -30.24805,-12.98828 l -14.01367,-2.82031 c -6.66503,-1.36719 -11.28027,-2.99122 -13.84375,-4.8711 -2.50651,-1.93685 -3.75976,-4.61328 -3.75976,-8.03125 0,-4.55729 1.88086,-7.91927 5.64062,-10.08398 3.75977,-2.16471 9.57031,-3.2461 17.43164,-3.2461 5.92448,1e-5 12.21973,0.79753 18.88477,2.39258 6.66504,1.59506 13.50098,3.95866 20.50781,7.0918 l 0,-27.001954 c -7.91829,-2.10775 -15.58073,-3.67384 -22.98633,-4.69922 -7.40559,-1.08236 -14.6123,-1.625 -21.61914,-1.625 z m 129.72656,0 c -21.24836,0 -38.08333,5.95345 -50.50195,17.859374 -12.41862,11.84896 -18.62695,27.97136 -18.62695,48.36524 0,20.33691 6.20833,36.45736 18.62695,48.36328 12.41862,11.84896 29.25359,17.77344 50.50195,17.77344 7.1208,0 13.9567,-0.79753 20.5078,-2.39258 6.5511,-1.59506 12.8444,-3.95867 18.8828,-7.0918 l 0,-26.4043 c -6.0954,4.15853 -12.1048,7.20573 -18.0293,9.14258 -5.9244,1.93685 -12.1617,2.90625 -18.7129,2.90625 -11.73496,0 -20.96351,-3.75976 -27.68551,-11.27929 -6.722,-7.51953 -10.08398,-17.8584 -10.08398,-31.01758 0,-13.21615 3.36198,-23.58398 10.08398,-31.10352 6.722,-7.51953 15.95055,-11.2793 27.68551,-11.2793 6.5512,10e-6 12.7885,0.96745 18.7129,2.9043 5.9245,1.93685 11.9339,4.98405 18.0293,9.14258 l 0,-26.40234 c -6.0384,-3.133144 -12.3317,-5.498704 -18.8828,-7.093754 -6.5511,-1.59506 -13.387,-2.39258 -20.5078,-2.39258 z"
     inkscape:connector-curvature="0"
     class="icon" />
  <rect
     style="opacity:1;fill:#00604b;fill-opacity:1;stroke:none;stroke-width:16;stroke-linejoin:miter;stroke-miterlimit:4;stroke-dasharray:none;stroke-opacity:1"
     id="rect3386-18"
     width="256"
     height="256"
     x="-675"
     y="30.544155"
     class="background" />
  <rect
     y="30.544155"
     x="-675"
     height="256"
     width="256"
     id="rect4347"
     style="opacity:1;fill:none;fill-opacity:1;stroke:#000000;stroke-width:16;stroke-linejoin:miter;stroke-miterlimit:4;stroke-dasharray:none;stroke-opacity:1"
     class="border" />
  <g
     id="g63"
     style="fill:#ffffff;stroke:none"
     transform="translate(-1507.5103,503.08433)"
     class="icon">
    <path
       sodipodi:nodetypes="ccccszsccccssszsssc"
       inkscape:connector-curvature="0"
       id="path5116"
       d="m 917.45764,-407.53314 c -11.01115,0.008 -21.70636,3.68156 -30.39844,10.44123 -23.59665,14.15401 -31.55683,51.89623 -18.68822,88.60754 14.32969,40.78761 49.09151,65.72121 77.64304,55.69096 2.67202,-0.95543 5.23067,-2.20476 7.65419,-3.73418 2.4236,-1.52943 3.86808,-3.71388 6.84328,-3.71388 2.9752,0 4.41977,2.18445 6.84329,3.71388 2.42352,1.52942 4.98225,2.77875 7.65419,3.73418 28.55153,10.03032 63.31353,-14.90329 77.64313,-55.69096 12.9115,-36.84201 4.842,-74.6962 -18.9158,-88.73378 -8.6471,-6.66723 -19.2535,-10.29319 -30.1726,-10.31499 -4.45561,0.003 -8.82512,0.25898 -13.01059,0.88231 -4.1855,0.62333 -8.18693,1.61455 -11.90644,3.08963 -3.71952,1.47507 -7.15719,3.434 -10.21506,5.99275 -3.05795,2.55875 -3.4824,2.78565 -7.9367,2.78813 -4.4543,0.003 -4.87536,-0.225 -7.93092,-2.7824 -3.05557,-2.55742 -6.49053,-4.51559 -10.20715,-5.99057 -3.71662,-1.47498 -7.71499,-2.46677 -11.8974,-3.09139 -4.18241,-0.62463 -8.54886,-0.8821 -13.0018,-0.88846 z"
       style="opacity:1;fill:#ffffff;fill-opacity:1;stroke:none;stroke-width:0.8504464;stroke-linejoin:round;stroke-miterlimit:4;stroke-dasharray:none;stroke-opacity:1" />
    <path
       id="path5151-1"
       d="m 939.87294,-438.50503 -3.13672,15.6875 17.87304,3.57422 -6.83007,39.27929 15.76367,2.74024 6.76172,-38.87891 20.66797,4.13281 3.13867,-15.68945 -54.23828,-10.8457 z"
       style="color:#000000;font-style:normal;font-variant:normal;font-weight:normal;font-stretch:normal;font-size:medium;line-height:normal;font-family:sans-serif;text-indent:0;text-align:start;text-decoration:none;text-decoration-line:none;text-decoration-style:solid;text-decoration-color:#000000;letter-spacing:normal;word-spacing:normal;text-transform:none;direction:ltr;block-progression:tb;writing-mode:lr-tb;baseline-shift:baseline;text-anchor:start;white-space:normal;clip-rule:nonzero;display:inline;overflow:visible;visibility:visible;opacity:1;isolation:auto;mix-blend-mode:normal;color-interpolation:sRGB;color-interpolation-filters:linearRGB;solid-color:#000000;solid-opacity:1;fill:#ffffff;fill-opacity:1;fill-rule:evenodd;stroke:none;stroke-width:16;stroke-linecap:butt;stroke-linejoin:miter;stroke-miterlimit:4;stroke-dasharray:none;stroke-dashoffset:0;stroke-opacity:1;color-rendering:auto;image-rendering:auto;shape-rendering:auto;text-rendering:auto;enable-background:accumulate"
       inkscape:connector-curvature="0" />
  </g>
  <rect
     style="opacity:1;fill:#00604b;fill-opacity:1;stroke:none;stroke-width:16;stroke-linejoin:miter;stroke-miterlimit:4;stroke-dasharray:none;stroke-opacity:1"
     id="rect3386-626"
     width="256"
     height="256"
     x="-388"
     y="30.544155"
     class="background" />
  <rect
     y="30.544155"
     x="-388"
     height="256"
     width="256"
     id="rect4349"
     style="opacity:1;fill:none;fill-opacity:1;stroke:#000000;stroke-width:16;stroke-linejoin:miter;stroke-miterlimit:4;stroke-dasharray:none;stroke-opacity:1"
     class="border" />
  <g
     id="g70"
     style="fill:#ffffff;stroke:none"
     transform="translate(-388,510.39042)"
     class="icon">
    <path
       id="path4979"
       d="m 65.636719,-419.01953 a 30.681244,30.681244 0 0 0 -30.681641,30.67969 30.681244,30.681244 0 0 0 30.681641,30.68164 30.681244,30.681244 0 0 0 30.68164,-30.68164 30.681244,30.681244 0 0 0 -30.68164,-30.67969 z m 62.363281,0 A 30.681244,30.681244 0 0 0 97.318359,-388.33984 30.681244,30.681244 0 0 0 128,-357.6582 30.681244,30.681244 0 0 0 158.67969,-388.33984 30.681244,30.681244 0 0 0 128,-419.01953 Z m 62.36133,0 a 30.681244,30.681244 0 0 0 -30.68164,30.67969 30.681244,30.681244 0 0 0 30.68164,30.68164 30.681244,30.681244 0 0 0 30.68359,-30.68164 30.681244,30.681244 0 0 0 -30.68359,-30.67969 z m -93.544924,54.36328 a 30.681244,30.681244 0 0 0 -30.679687,30.68164 30.681244,30.681244 0 0 0 30.679687,30.67969 30.681244,30.681244 0 0 0 30.681644,-30.67969 30.681244,30.681244 0 0 0 -30.681644,-30.68164 z m 62.363284,0 a 30.681244,30.681244 0 0 0 -30.68164,30.68164 30.681244,30.681244 0 0 0 30.68164,30.67969 30.681244,30.681244 0 0 0 30.68359,-30.67969 30.681244,30.681244 0 0 0 -30.68359,-30.68164 z M 128,-310.29492 A 30.681244,30.681244 0 0 0 97.318359,-279.61328 30.681244,30.681244 0 0 0 128,-248.93359 30.681244,30.681244 0 0 0 158.68164,-279.61328 30.681244,30.681244 0 0 0 128,-310.29492 Z"
       style="opacity:1;fill:#ffffff;fill-opacity:1;stroke:none;stroke-width:1;stroke-linejoin:round;stroke-miterlimit:4;stroke-dasharray:none;stroke-opacity:1"
       inkscape:connector-curvature="0" />
    <path
       inkscape:connector-curvature="0"
       id="path5151"
       d="m 110.04261,-454.75894 -3.13672,15.6875 17.87304,3.57422 -6.83007,39.27929 15.76367,2.74024 6.76172,-38.87891 20.66797,4.13281 3.13867,-15.68945 -54.23828,-10.8457 z"
       style="color:#000000;font-style:normal;font-variant:normal;font-weight:normal;font-stretch:normal;font-size:medium;line-height:normal;font-family:sans-serif;text-indent:0;text-align:start;text-decoration:none;text-decoration-line:none;text-decoration-style:solid;text-decoration-color:#000000;letter-spacing:normal;word-spacing:normal;text-transform:none;direction:ltr;block-progression:tb;writing-mode:lr-tb;baseline-shift:baseline;text-anchor:start;white-space:normal;clip-rule:nonzero;display:inline;overflow:visible;visibility:visible;opacity:1;isolation:auto;mix-blend-mode:normal;color-interpolation:sRGB;color-interpolation-filters:linearRGB;solid-color:#000000;solid-opacity:1;fill:#ffffff;fill-opacity:1;fill-rule:evenodd;stroke:none;stroke-width:16;stroke-linecap:butt;stroke-linejoin:miter;stroke-miterlimit:4;stroke-dasharray:none;stroke-dashoffset:0;stroke-opacity:1;color-rendering:auto;image-rendering:auto;shape-rendering:auto;text-rendering:auto;enable-background:accumulate" />
  </g>
  <rect
     style="opacity:1;fill:#00604b;fill-opacity:1;stroke:none;stroke-width:16;stroke-linejoin:miter;stroke-miterlimit:4;stroke-dasharray:none;stroke-opacity:1"
     id="rect3386-7"
     width="256"
     height="256"
     x="186"
     y="-256.45584"
     class="backround" />
  <rect
     y="-256.45584"
     x="186"
     height="256"
     width="256"
     id="rect4351"
     style="opacity:1;fill:none;fill-opacity:1;stroke:#000000;stroke-width:16;stroke-linejoin:miter;stroke-miterlimit:4;stroke-dasharray:none;stroke-opacity:1"
     class="border" />
  <path
     id="path77"
     inkscape:connector-curvature="0"
     style="font-style:normal;font-variant:normal;font-weight:bold;font-stretch:normal;font-size:medium;line-height:125%;font-family:'DejaVu Sans';-inkscape-font-specification:'DejaVu Sans, Bold';text-align:start;letter-spacing:0px;word-spacing:0px;writing-mode:lr-tb;text-anchor:start;fill:#ffffff;fill-opacity:1;stroke:none;stroke-width:1px;stroke-linecap:butt;stroke-linejoin:miter;stroke-opacity:1"
     d="m 251.57935,-192.24368 32.89795,0 0,46.56982 47.42431,-46.56982 38.19581,0 -61.43799,60.41259 67.76122,67.163091 -41.18652,0 -50.75683,-50.244141 0,50.244141 -32.89795,0 0,-127.575681 z"
     class="icon" />
  <rect
     style="opacity:1;fill:#00604b;fill-opacity:1;stroke:none;stroke-width:16;stroke-linejoin:miter;stroke-miterlimit:4;stroke-dasharray:none;stroke-opacity:1"
     id="rect3386-60-3"
     width="256"
     height="256"
     x="-101"
     y="30.544155"
     class="background" />
  <rect
     y="30.544155"
     x="-101"
     height="256"
     width="256"
     id="rect4353"
     style="opacity:1;fill:none;fill-opacity:1;stroke:#000000;stroke-width:16;stroke-linejoin:miter;stroke-miterlimit:4;stroke-dasharray:none;stroke-opacity:1"
     class="border" />
  <g
     id="g82"
     style="fill:#ffffff;stroke:none"
     transform="translate(-348.25167,502.21264)"
     class="icon">
    <path
       id="path84"
       style="opacity:1;fill:#ffffff;fill-opacity:1;stroke:none;stroke-width:1;stroke-linejoin:round;stroke-miterlimit:4;stroke-dasharray:none;stroke-opacity:1"
       d="m 423.40304,-431.87798 -21.42187,11.34961 a 106.30508,106.30508 0 0 1 12.39257,49.54492 106.30508,106.30508 0 0 1 -106.30468,106.30469 106.30508,106.30508 0 0 1 -11.13282,-0.64063 l -8.53515,13.05078 a 112.81356,112.81356 0 0 0 60.88672,17.96289 112.81356,112.81356 0 0 0 112.81445,-112.8125 112.81356,112.81356 0 0 0 -38.69922,-84.75976 z"
       inkscape:connector-curvature="0" />
    <path
       style="color:#000000;font-style:normal;font-variant:normal;font-weight:normal;font-stretch:normal;font-size:medium;line-height:normal;font-family:sans-serif;text-indent:0;text-align:start;text-decoration:none;text-decoration-line:none;text-decoration-style:solid;text-decoration-color:#000000;letter-spacing:normal;word-spacing:normal;text-transform:none;direction:ltr;block-progression:tb;writing-mode:lr-tb;baseline-shift:baseline;text-anchor:start;white-space:normal;clip-rule:nonzero;display:inline;overflow:visible;visibility:visible;opacity:1;isolation:auto;mix-blend-mode:normal;color-interpolation:sRGB;color-interpolation-filters:linearRGB;solid-color:#000000;solid-opacity:1;fill:#ffffff;fill-opacity:1;fill-rule:evenodd;stroke:none;stroke-width:16;stroke-linecap:butt;stroke-linejoin:miter;stroke-miterlimit:4;stroke-dasharray:none;stroke-dashoffset:0;stroke-opacity:1;color-rendering:auto;image-rendering:auto;shape-rendering:auto;text-rendering:auto;enable-background:accumulate"
       d="m 403.64844,-453.03125 -12.65235,9.79492 36.81836,47.55469 12.65039,-9.79492 -36.8164,-47.55469 z"
       id="path5249"
       inkscape:connector-curvature="0" />
  </g>
  <rect
     style="opacity:1;fill:#00604b;fill-opacity:1;stroke:none;stroke-width:16;stroke-linejoin:miter;stroke-miterlimit:4;stroke-dasharray:none;stroke-opacity:1"
     id="rect3386-6-7"
     width="256"
     height="256"
     x="186"
     y="30.544161"
     class="background" />
  <rect
     y="30.544161"
     x="186"
     height="256"
     width="256"
     id="rect4355"
     style="opacity:1;fill:none;fill-opacity:1;stroke:#000000;stroke-width:16;stroke-linejoin:miter;stroke-miterlimit:4;stroke-dasharray:none;stroke-opacity:1"
     class="border" />
  <path
     id="path90"
     style="opacity:1;fill:#ffffff;fill-opacity:1;stroke:none;stroke-width:1;stroke-linejoin:round;stroke-miterlimit:4;stroke-dasharray:none;stroke-opacity:1"
     d="m 373.5615,73.13077 a 15.18644,18.440678 35.062462 0 0 -21.7569,4.74288 c -3.665,-1.14331 -7.4595,-1.9047 -11.3458,-2.2886 -9.341,-0.92274 -19.2008,0.30843 -28.9984,3.50465 -9.7976,3.19623 -19.5338,8.35654 -28.6268,15.29293 -9.0931,6.9364 -17.5421,15.64834 -24.7694,25.9461 -7.2273,10.29777 -12.549,21.20693 -15.9809,32.11651 -3.4319,10.90959 -4.9748,21.8202 -4.6498,32.12085 0.3251,10.30063 2.5193,19.99168 6.5627,28.46263 2.111,4.42239 4.7306,8.50604 7.847,12.17653 a 15.18644,18.440678 35.062462 0 0 4.4712,18.75776 15.18644,18.440678 35.062462 0 0 19.7665,-2.699 c 3.7009,1.16363 7.5345,1.93918 11.4619,2.32714 9.341,0.92274 19.1992,-0.30954 28.9968,-3.50577 9.7976,-3.19622 19.5338,-8.35655 28.6268,-15.29293 9.0931,-6.93639 17.5448,-15.64881 24.7721,-25.94658 7.2273,-10.29776 12.5463,-21.20645 15.9782,-32.11603 3.4319,-10.90958 4.9748,-21.82019 4.6498,-32.12084 -0.3251,-10.30064 -2.5177,-19.99056 -6.5611,-28.46151 -1.9718,-4.13081 -4.3867,-7.96958 -7.2358,-11.44936 a 15.18644,18.440678 35.062462 0 0 -3.2081,-21.56736 z"
     inkscape:connector-curvature="0"
     class="icon" />
  <rect
     style="opacity:1;fill:#00604b;fill-opacity:1;stroke:none;stroke-width:16;stroke-linejoin:miter;stroke-miterlimit:4;stroke-dasharray:none;stroke-opacity:1"
     id="rect3386-60-2"
     width="256"
     height="256"
     x="473"
     y="30.544161"
     class="background" />
  <rect
     y="30.544161"
     x="473"
     height="256"
     width="256"
     id="rect4357"
     style="opacity:1;fill:none;fill-opacity:1;stroke:#000000;stroke-width:16;stroke-linejoin:miter;stroke-miterlimit:4;stroke-dasharray:none;stroke-opacity:1"
     class="border" />
  <g
     id="g95"
     style="fill:#ffffff"
     transform="translate(765.29521,513.31093)"
     class="icon">
    <circle
       r="42.049259"
       cy="-295.40115"
       cx="-217.347"
       id="path5198"
       style="opacity:1;fill:#ffffff;fill-opacity:1;stroke:none;stroke-width:1.27490234;stroke-linejoin:round;stroke-miterlimit:4;stroke-dasharray:none;stroke-opacity:1" />
    <circle
       r="42.049259"
       cy="-295.40115"
       cx="-111.24342"
       id="path5198-6"
       style="opacity:1;fill:#ffffff;fill-opacity:1;stroke:none;stroke-width:1.27490234;stroke-linejoin:round;stroke-miterlimit:4;stroke-dasharray:none;stroke-opacity:1" />
    <path
       style="color:#000000;font-style:normal;font-variant:normal;font-weight:normal;font-stretch:normal;font-size:medium;line-height:normal;font-family:sans-serif;text-indent:0;text-align:start;text-decoration:none;text-decoration-line:none;text-decoration-style:solid;text-decoration-color:#000000;letter-spacing:normal;word-spacing:normal;text-transform:none;direction:ltr;block-progression:tb;writing-mode:lr-tb;baseline-shift:baseline;text-anchor:start;white-space:normal;clip-rule:nonzero;display:inline;overflow:visible;visibility:visible;opacity:1;isolation:auto;mix-blend-mode:normal;color-interpolation:sRGB;color-interpolation-filters:linearRGB;solid-color:#000000;solid-opacity:1;fill:#ffffff;fill-opacity:1;fill-rule:evenodd;stroke:none;stroke-width:16;stroke-linecap:butt;stroke-linejoin:miter;stroke-miterlimit:4;stroke-dasharray:none;stroke-dashoffset:0;stroke-opacity:1;color-rendering:auto;image-rendering:auto;shape-rendering:auto;text-rendering:auto;enable-background:accumulate"
       d="m -142.76562,-456.18164 c 0,0 -23.69842,91.85475 -76.83008,132.0625 l 9.65429,12.75976 c 60.38894,-45.69973 82.71289,-141.00195 82.71289,-141.00195 l -15.5371,-3.82031 z"
       id="path5245"
       inkscape:connector-curvature="0" />
    <path
       style="color:#000000;font-style:normal;font-variant:normal;font-weight:normal;font-stretch:normal;font-size:medium;line-height:normal;font-family:sans-serif;text-indent:0;text-align:start;text-decoration:none;text-decoration-line:none;text-decoration-style:solid;text-decoration-color:#000000;letter-spacing:normal;word-spacing:normal;text-transform:none;direction:ltr;block-progression:tb;writing-mode:lr-tb;baseline-shift:baseline;text-anchor:start;white-space:normal;clip-rule:nonzero;display:inline;overflow:visible;visibility:visible;opacity:1;isolation:auto;mix-blend-mode:normal;color-interpolation:sRGB;color-interpolation-filters:linearRGB;solid-color:#000000;solid-opacity:1;fill:#ffffff;fill-opacity:1;fill-rule:evenodd;stroke:none;stroke-width:16;stroke-linecap:butt;stroke-linejoin:miter;stroke-miterlimit:4;stroke-dasharray:none;stroke-dashoffset:0;stroke-opacity:1;color-rendering:auto;image-rendering:auto;shape-rendering:auto;text-rendering:auto;enable-background:accumulate"
       d="m -158.61914,-410.48438 c -4.25173,64.20063 47.92578,100.73829 47.92578,100.73829 l 9.17969,-13.10547 c 0,0 -44.79594,-31.38146 -41.14063,-86.57617 l -15.96484,-1.05665 z"
       id="path5247"
       inkscape:connector-curvature="0" />
  </g>
</svg>
