<svg xmlns="http://www.w3.org/2000/svg" xmlns:xlink="http://www.w3.org/1999/xlink" version="1.1" width="2560" height="1024">
    <style>
.background {
    fill: url(#linear_gradient);
    stroke: none;
}

.border {
    fill: none;
    stroke-width: 32px;
    stroke: #333;
}

.symbol {
    fill: #fff;
    stroke: none;
}
    </style>
    <defs>
        <symbol id="icon_7">
            <path d="m 79.9348,64.21216 96.1304,0 0,18.54248 -49.7315,109.0332 -32.0434,0 47.0825,-103.39355 -61.438,0 0,-24.18213 z" />
        </symbol>
        <symbol id="icon_8">
            <path d="m 128.1282,134.62232 q -9.2285,0 -14.1846,5.0415 -4.9561,5.0415 -4.9561,14.44092 0,9.39941 4.9561,14.44092 4.9561,4.95605 14.1846,4.95605 9.143,0 14.0136,-4.95605 4.8707,-5.04151 4.8707,-14.44092 0,-9.48487 -4.8707,-14.44092 -4.8706,-5.0415 -14.0136,-5.0415 z m -24.0113,-10.85206 q -11.6211,-3.50341 -17.517,-10.7666 -5.896,-7.26318 -5.896,-18.11523 0,-16.1499 12.0483,-24.60938 12.0483,-8.45947 35.376,-8.45947 23.1567,0 35.2051,8.45947 12.0483,8.37403 12.0483,24.60938 0,10.85205 -5.9815,18.11523 -5.896,7.26319 -17.517,10.7666 12.9882,3.58887 19.5678,11.70655 6.6651,8.03222 6.6651,20.33691 0,18.96973 -12.6465,28.71094 -12.5611,9.65576 -37.3413,9.65576 -24.8657,0 -37.5977,-9.65576 -12.6465,-9.74121 -12.6465,-28.71094 0,-12.30469 6.5796,-20.33691 6.6651,-8.11768 19.6533,-11.70655 z m 7.6905,-25.54931 q 0,7.60498 4.187,11.70654 4.2724,4.10156 12.1338,4.10156 7.6904,0 11.8774,-4.10156 4.187,-4.10156 4.187,-11.70654 0,-7.60498 -4.187,-11.6211 -4.187,-4.10156 -11.8774,-4.10156 -7.8614,0 -12.1338,4.10156 -4.187,4.10157 -4.187,11.6211 z" />
        </symbol>
        <symbol id="icon_9">
            <path d="m 85.702655,188.79712 0,-23.58399 q 7.8613,3.67432 15.038995,5.5542 7.17778,1.79444 14.18462,1.79444 14.69726,0 22.90039,-8.11768 8.20312,-8.20312 9.65576,-24.26758 -5.81055,4.27246 -12.39014,6.4087 -6.57958,2.13623 -14.27001,2.13623 -19.56791,0 -31.616215,-11.36475 -11.9629,-11.4502 -11.9629,-30.07813 0,-20.59326 13.3301,-32.98339 13.415515,-12.39014 35.888655,-12.39014 24.95118,0 38.62305,16.8335 13.67188,16.83349 13.67188,47.59521 0,31.61621 -15.97901,49.73145 -15.979,18.02978 -43.83545,18.02978 -8.97217,0 -17.17533,-1.36719 -8.203095,-1.28173 -16.064395,-3.93066 z m 40.588365,-61.43799 q 8.63037,0 12.98829,-5.5542 4.3579,-5.63965 4.3579,-16.83349 0,-11.1084 -4.3579,-16.74805 -4.35791,-5.63965 -12.98829,-5.63965 -8.63037,0 -12.98829,5.63965 -4.3579,5.63965 -4.3579,16.74805 0,11.19384 4.3579,16.83349 4.35791,5.5542 12.98829,5.5542 z" />
        </symbol>
        <symbol id="icon_10">
            <path d="m 180.20119,61.82031 c -16.8051,0 -29.7663,5.7526 -38.8809,17.25977 -9.1146,11.45019 -13.6719,27.77148 -13.6719,48.96289 0,21.13444 4.5573,37.45573 13.6719,48.96289 9.1146,11.45019 22.0758,17.17383 38.8809,17.17383 16.74801,0 29.67831,-5.72364 38.79291,-17.17383 9.11459,-11.50716 13.6719,-27.82845 13.6719,-48.96289 0,-21.19141 -4.55731,-37.5127 -13.6719,-48.96289 -9.1146,-11.50717 -22.0449,-17.25977 -38.79291,-17.25977 z m -127.216885,2.30664 -29.6503,6.15235 0,22.38672 29.8222,-6.15235 0,82.45899 -29.0527,0 0,22.73046 89.208965,0 0,-22.73046 -29.052765,0 0,-104.84571 -31.2754,0 z M 180.20119,84.29297 c 7.0638,0 12.07681,3.27506 15.039,9.82617 3.0192,6.49414 4.5274,17.71745 4.5274,33.66797 0,16.12142 -1.5082,27.48568 -4.5274,34.09375 -3.01919,6.60807 -8.0322,9.91211 -15.039,9.91211 -7.0639,0 -12.1058,-3.30404 -15.125,-9.91211 -3.0193,-6.60807 -4.5293,-17.97233 -4.5293,-34.09375 0,-15.95052 1.51,-27.17383 4.5293,-33.66797 3.0192,-6.55111 8.0611,-9.82617 15.125,-9.82617 z" />
        </symbol>
        <symbol id="icon_jack">
            <path d="m 124.49655,46.69507 32.898,0 0,115.18554 q 0,23.84033 -12.9883,35.63232 -12.9028,11.792 -39.1357,11.792 l -6.6651,0 0,-24.86573 5.127,0 q 10.2539,0 15.4663,-5.72509 5.2978,-5.7251 5.2978,-16.8335 l 0,-115.18554 z" />
        </symbol>
        <symbol id="icon_queen">
            <path d="m 131.5034,182.47388 -2.5635,0 q -31.5307,0 -49.0478,-17.43165 -17.5171,-17.43164 -17.5171,-48.53514 0,-31.018065 17.4317,-48.620615 17.517,-17.60254 48.1933,-17.60254 31.0181,0 48.2788,17.43164 17.3462,17.43165 17.3462,48.791515 0,21.53319 -9.2285,37.08496 -9.1431,15.55176 -26.4038,23.41308 l 25.7202,28.71094 -31.3599,0 -20.8496,-23.24219 z M 128,74.124285 q -15.039,0 -23.3276,11.10839 -8.2886,11.10839 -8.2886,31.274415 0,20.5078 8.1177,31.4453 8.1177,10.85205 23.4985,10.85205 15.1245,0 23.4131,-11.1084 8.2886,-11.10839 8.2886,-31.18896 0,-20.166015 -8.2886,-31.274405 Q 143.1245,74.124285 128,74.124285 Z" />
        </symbol>
        <symbol id="icon_king">
            <path d="m 65.57935,64.21216 32.8979,0 0,46.56982 47.4243,-46.56982 38.1958,0 -61.438,60.41259 67.7613,67.16309 -41.1866,0 -50.7568,-50.24414 0,50.24414 -32.8979,0 0,-127.57568 z" />
        </symbol>
        <symbol id="icon_ace">
            <path d="m 153.7629,168.54565 -51.4404,0 -8.1177,23.24219 -33.0688,0 47.2534,-127.575685 39.2212,0 47.2534,127.575685 -33.0688,0 -8.0323,-23.24219 z m -43.2373,-23.66943 34.9488,0 -17.4317,-50.756825 -17.5171,50.756835 z" />
        </symbol>
        <symbol id="icon_scatter">
            <path d="m 67.281265,61.81934 c -15.3809,0 -27.1719,3.41796 -35.375,10.2539 -8.2031,6.83594 -12.3047,16.6071 -12.3047,29.31054 0,10.13997 2.9333,18.2002 8.8008,24.18164 5.9245,5.98145 15.2669,10.33986 28.0273,13.07423 l 12.7325,2.81836 c 7.7474,1.70898 12.9013,3.64582 15.4648,5.81054 2.6205,2.16471 3.9316,5.24088 3.9316,9.22851 0,4.44336 -1.9078,7.86133 -5.7246,10.25391 -3.8167,2.39258 -9.3144,3.58984 -16.4921,3.58984 -7.0638,0 -14.4135,-1.08333 -22.0469,-3.24804 -7.5765,-2.22168 -15.4378,-5.49675 -23.584,-9.82618 l 0,27.77149 c 8.1462,3.0192 16.2933,5.29785 24.4394,6.83594 8.1462,1.53808 16.2644,2.30664 24.3536,2.30664 17.1468,0 29.8782,-3.41797 38.195275,-10.25391 8.37403,-6.8929 12.56055,-17.37467 12.56055,-31.44531 0,-10.70964 -2.99121,-18.96875 -8.97266,-24.7793 -5.98145,-5.81055 -16.063465,-10.13997 -30.248065,-12.98828 l -14.0137,-2.82031 c -6.665,-1.36719 -11.2802,-2.99122 -13.8437,-4.8711 -2.5065,-1.93685 -3.7598,-4.61328 -3.7598,-8.03125 0,-4.55729 1.8809,-7.91927 5.6407,-10.08398 3.7597,-2.16471 9.5703,-3.2461 17.4316,-3.2461 5.9245,1e-5 12.2197,0.79753 18.8848,2.39258 6.665,1.59506 13.500945,3.95866 20.507775,7.0918 l 0,-27.00195 c -7.91829,-2.10775 -15.580775,-3.67384 -22.986375,-4.69922 -7.4055,-1.08236 -14.6123,-1.625 -21.6191,-1.625 z m 129.726575,0 c -21.24836,0 -38.08333,5.95345 -50.50195,17.85937 -12.41862,11.84896 -18.62695,27.97136 -18.62695,48.36524 0,20.33691 6.20833,36.45736 18.62695,48.36328 12.41862,11.84896 29.25359,17.77344 50.50195,17.77344 7.1208,0 13.9567,-0.79753 20.5078,-2.39258 6.5511,-1.59506 12.8444,-3.95867 18.8828,-7.0918 l 0,-26.4043 c -6.0954,4.15853 -12.1048,7.20573 -18.0293,9.14258 -5.9244,1.93685 -12.1617,2.90625 -18.7129,2.90625 -11.73496,0 -20.96352,-3.75976 -27.68551,-11.27929 -6.722,-7.51953 -10.08398,-17.8584 -10.08398,-31.01758 0,-13.21615 3.36198,-23.58398 10.08398,-31.10352 6.72199,-7.51953 15.95055,-11.2793 27.68551,-11.2793 6.5512,1e-5 12.7885,0.96745 18.7129,2.9043 5.92449,1.93685 11.9339,4.98405 18.0293,9.14258 l 0,-26.40234 c -6.0384,-3.13314 -12.3317,-5.4987 -18.8828,-7.09375 -6.5511,-1.59506 -13.387,-2.39258 -20.5078,-2.39258 z" />
        </symbol>
        <symbol id="icon_freespins">
            <path d="m 173.414,61.819335 c -15.3808,0 -27.1718,3.41797 -35.375,10.25391 -8.2031,6.83594 -12.3047,16.6071 -12.3047,29.310535 0,10.13997 2.9333,18.2002 8.8008,24.18165 5.9245,5.98144 15.267,10.33985 28.0274,13.07422 l 12.7324,2.81837 c 7.7474,1.70899 12.9014,3.64582 15.4649,5.81054 2.6204,2.16471 3.9316,5.24088 3.9316,9.22852 0,4.44335 -1.9079,7.86132 -5.7246,10.2539 -3.8168,2.39258 -9.3145,3.58985 -16.4922,3.58985 -7.0638,0 -14.4134,-1.08334 -22.0469,-3.24804 -7.5765,-2.22169 -15.4378,-5.49676 -23.584,-9.82619 l 0,27.77149 c 8.1462,3.0192 16.2933,5.29784 24.4395,6.83594 8.1461,1.53807 16.2643,2.30664 24.3535,2.30664 17.1468,0 29.8783,-3.41798 38.1953,-10.25391 8.374,-6.8929 12.5606,-17.37467 12.5606,-31.44532 0,-10.70963 -2.9912,-18.96875 -8.9727,-24.77929 -5.9814,-5.81055 -16.0635,-10.13997 -30.248,-12.98828 l -14.0137,-2.82031 c -6.6651,-1.36719 -11.2803,-2.99122 -13.8438,-4.8711 -2.5065,-1.93685 -3.7597,-4.61328 -3.7597,-8.031255 0,-4.55729 1.8808,-7.91927 5.6406,-10.08398 3.7598,-2.16471 9.5703,-3.2461 17.4316,-3.2461 5.9245,1e-5 12.2198,0.79753 18.8848,2.39258 6.665,1.59506 13.501,3.95866 20.5078,7.0918 l 0,-27.00195 c -7.9183,-2.10775 -15.5807,-3.67384 -22.9863,-4.69922 -7.4056,-1.08235 -14.6123,-1.625 -21.6192,-1.625 z m -143.8066,2.3086 0,127.574205 32.8984,0 0,-54.08788 52.5508,0 0,-24.8672 -52.5508,0 0,-23.753895 55.8848,0 0,-24.86523 -88.7832,0 z" />
        </symbol>
        <symbol id="icon_wild">
            <path d="m 36.8257,64.21216 31.5307,0 22.0459,92.7124 21.875,-92.7124 31.7017,0 21.875,92.7124 22.0459,-92.7124 31.2744,0 -30.0781,127.57568 -37.9395,0 L 128,94.80298 l -22.9004,96.98486 -37.9394,0 L 36.8257,64.21216 Z" />
        </symbol>
        <symbol id="icon_apple">
            <path d="m 107.36267,34.035437 -3.13672,15.6875 17.87305,3.57422 -3.5625,20.49023 c -2.66166,-1.98326 -5.57655,-3.56461 -8.69141,-4.80078 -3.71662,-1.47498 -7.71407,-2.46522 -11.89648,-3.08984 -4.18241,-0.62463 -8.54901,-0.88231 -13.00195,-0.88867 -11.01115,0.008 -21.70636,3.68173 -30.39844,10.4414 -23.59665,14.15401 -31.55611,51.896123 -18.6875,88.607433 14.32969,40.78761 49.09105,65.7197 77.64258,55.68945 2.67202,-0.95543 5.23077,-2.203 7.65429,-3.73242 2.4236,-1.52943 3.86855,-3.71485 6.84375,-3.71485 2.9752,0 4.41828,2.18542 6.8418,3.71485 2.42352,1.52942 4.98236,2.77699 7.6543,3.73242 28.55153,10.03032 63.31493,-14.90178 77.64453,-55.68945 12.9115,-36.84201 4.84178,-74.696803 -18.91602,-88.734383 -8.6471,-6.66723 -19.25472,-10.29265 -30.17382,-10.31445 -4.45561,0.003 -8.8243,0.25753 -13.00977,0.88086 -4.1855,0.62333 -8.18674,1.61476 -11.90625,3.08984 -3.71952,1.47507 -7.15697,3.43539 -10.21484,5.99414 -0.61693,0.51622 -1.11305,0.91411 -1.57032,1.25781 l 3.44336,-19.79296 20.66797,4.13281 3.13867,-15.68945 -54.23828,-10.84571 z" />
        </symbol>
        <symbol id="icon_banana">
            <path d="m 156.39746,18.636715 -12.65234,9.79493 15.66211,20.23046 -4.67774,2.47852 A 106.30508,106.30508 0 0 1 167.12207,100.68554 106.30508,106.30508 0 0 1 60.817385,206.99023 106.30508,106.30508 0 0 1 49.684565,206.3496 l -8.53515,13.05079 a 112.81356,112.81356 0 0 0 60.886715,17.96289 112.81356,112.81356 0 0 0 112.81446,-112.8125 112.81356,112.81356 0 0 0 -38.69922,-84.759765 l -2.39453,1.26758 -17.35938,-22.42188 z" />
        </symbol>
        <symbol id="icon_grape">
            <path d="m 110.04297,25.087895 -3.13672,15.6875 17.87305,3.57421 -2.97656,17.11329 A 30.681244,30.681244 0 0 0 97.31836,91.505865 30.681244,30.681244 0 0 0 128,122.1875 30.681244,30.681244 0 0 0 158.67969,91.505865 30.681244,30.681244 0 0 0 137.86524,62.496095 l 2.60937,-15.00586 20.66797,4.13281 3.13867,-15.68945 -54.23828,-10.8457 z M 65.63672,60.826175 A 30.681244,30.681244 0 0 0 34.95508,91.505865 30.681244,30.681244 0 0 0 65.63672,122.1875 30.681244,30.681244 0 0 0 96.31836,91.505865 30.681244,30.681244 0 0 0 65.63672,60.826175 Z m 124.72461,0 a 30.681244,30.681244 0 0 0 -30.68164,30.67969 30.681244,30.681244 0 0 0 30.68164,30.681635 30.681244,30.681244 0 0 0 30.68359,-30.681635 30.681244,30.681244 0 0 0 -30.68359,-30.67969 z M 96.81641,115.18945 a 30.681244,30.681244 0 0 0 -30.67969,30.68164 30.681244,30.681244 0 0 0 30.67969,30.67969 30.681244,30.681244 0 0 0 30.68164,-30.67969 30.681244,30.681244 0 0 0 -30.68164,-30.68164 z m 62.36328,0 a 30.681244,30.681244 0 0 0 -30.68164,30.68164 30.681244,30.681244 0 0 0 30.68164,30.67969 30.681244,30.681244 0 0 0 30.68359,-30.67969 30.681244,30.681244 0 0 0 -30.68359,-30.68164 z M 128,169.55078 A 30.681244,30.681244 0 0 0 97.31836,200.23242 30.681244,30.681244 0 0 0 128,230.9121 30.681244,30.681244 0 0 0 158.68164,200.23242 30.681244,30.681244 0 0 0 128,169.55078 Z" />
        </symbol>
        <symbol id="icon_lemon">
            <path d="m 187.5615,42.586615 a 15.18644,18.440678 35.062462 0 0 -21.7569,4.74288 c -3.665,-1.14331 -7.4595,-1.9047 -11.3458,-2.2886 -9.341,-0.92274 -19.2008,0.30843 -28.9984,3.50465 -9.7976,3.19623 -19.5338,8.35654 -28.6268,15.29293 -9.0931,6.9364 -17.5421,15.64834 -24.7694,25.9461 -7.2273,10.297765 -12.549,21.206925 -15.9809,32.116505 -3.4319,10.90959 -4.9748,21.8202 -4.6498,32.12085 0.3251,10.30063 2.5193,19.99168 6.5627,28.46263 2.111,4.42239 4.7306,8.50604 7.847,12.17653 a 15.18644,18.440678 35.062462 0 0 4.4712,18.75776 15.18644,18.440678 35.062462 0 0 19.7665,-2.699 c 3.7009,1.16363 7.5345,1.93918 11.4619,2.32714 9.341,0.92274 19.1992,-0.30954 28.9968,-3.50577 9.7976,-3.19622 19.5338,-8.35655 28.6268,-15.29293 9.0931,-6.93639 17.5448,-15.64881 24.7721,-25.94658 7.2273,-10.29776 12.5463,-21.20645 15.9782,-32.11603 3.4319,-10.90958 4.9748,-21.82019 4.6498,-32.12084 -0.3251,-10.300635 -2.5177,-19.990555 -6.5611,-28.461505 -1.9718,-4.13081 -4.3867,-7.96958 -7.2358,-11.44936 a 15.18644,18.440678 35.062462 0 0 -3.2081,-21.56736 z" />
        </symbol>
        <symbol id="icon_cherry">
            <path d="m 149.5293,26.58496 c 0,0 -19.69856,76.32837 -63.43164,120.28321 a 42.049259,42.049259 0 0 0 -11.15039,-1.55274 42.049259,42.049259 0 0 0 -42.04883,42.04883 42.049259,42.049259 0 0 0 42.04883,42.05078 42.049259,42.049259 0 0 0 42.05078,-42.05078 42.049259,42.049259 0 0 0 -15.87891,-32.85937 c 14.38533,-15.16728 25.98381,-32.87835 35.16602,-50.09961 4.61627,19.68524 14.12857,35.44434 23.25781,46.88281 a 42.049259,42.049259 0 0 0 -20.54102,36.07617 42.049259,42.049259 0 0 0 42.05079,42.05078 42.049259,42.049259 0 0 0 42.04882,-42.05078 42.049259,42.049259 0 0 0 -42.04882,-42.04883 42.049259,42.049259 0 0 0 -5.45508,0.40625 c -12.21799,-13.82656 -27.1876,-37.40858 -26.10938,-69.25 10.87649,-26.05853 15.57813,-46.0664 15.57813,-46.0664 L 149.5293,26.58496 Z" />
        </symbol>
        <symbol id="icon_spin">
            <path d="m 142.26367,16.55859 c -31.89523,0 -60.78108,13.60595 -81.15039,35.29102 L 86.98242,96.6543 c 10.83364,-19.23698 31.40448,-32.09571 55.28125,-32.09571 35.32207,0 63.44336,28.11934 63.44336,63.44141 0,35.32207 -28.12129,63.44141 -63.44336,63.44141 -24.20126,0 -45.01751,-13.20376 -55.72852,-32.87696 l 26.95508,0 -55.59961,-96.29883 -55.59765,96.29883 32.82421,0 c 13.3802,46.54104 56.4705,80.87696 107.14649,80.87696 61.26319,0 111.44336,-50.17821 111.44336,-111.44141 0,-61.26319 -50.18017,-111.44141 -111.44336,-111.44141 z" />
        </symbol>
        <symbol id="icon_square">
            <rect id="rect_square" width="256" height="256" x="0" y="0" />
        </symbol>
        <clipPath id="clip_square">
            <use xlink:href="#rect_square" />
        </clipPath>
        <linearGradient id="linear_gradient" x1="0" y1="1" x2="0" y2="0">
            <stop offset="5%"  stop-color="#aaa"/>
            <stop offset="95%" stop-color="#ccc"/>
        </linearGradient>
    </defs>

    <g id="sym_7" transform="translate(0,0)" clip-path="url(#clip_square)">
        <use class="background" xlink:href="#icon_square" />
        <use class="border" xlink:href="#icon_square" />
        <use class="symbol" xlink:href="#icon_7" />
    </g>

    <g id="sym_8" transform="translate(256,0)" clip-path="url(#clip_square)">
        <use class="background" xlink:href="#icon_square" />
        <use class="border" xlink:href="#icon_square" />
        <use class="symbol" xlink:href="#icon_8" />
    </g>

    <g id="sym_9" transform="translate(512,0)" clip-path="url(#clip_square)">
        <use class="background" xlink:href="#icon_square" />
        <use class="border" xlink:href="#icon_square" />
        <use class="symbol" xlink:href="#icon_9" />
    </g>

    <g id="sym_10" transform="translate(768,0)" clip-path="url(#clip_square)">
        <use class="background" xlink:href="#icon_square" />
        <use class="border" xlink:href="#icon_square" />
        <use class="symbol" xlink:href="#icon_10" />
    </g>

    <g id="sym_j" transform="translate(1024,0)" clip-path="url(#clip_square)">
        <use class="background" xlink:href="#icon_square" />
        <use class="border" xlink:href="#icon_square" />
        <use class="symbol" xlink:href="#icon_jack" />
    </g>

    <g id="sym_q" transform="translate(1280,0)" clip-path="url(#clip_square)">
        <use class="background" xlink:href="#icon_square" />
        <use class="border" xlink:href="#icon_square" />
        <use class="symbol" xlink:href="#icon_queen" />
    </g>

    <g id="sym_k" transform="translate(1536,0)" clip-path="url(#clip_square)">
        <use class="background" xlink:href="#icon_square" />
        <use class="border" xlink:href="#icon_square" />
        <use class="symbol" xlink:href="#icon_king" />
    </g>

    <g id="sym_a" transform="translate(1792,0)" clip-path="url(#clip_square)">
        <use class="background" xlink:href="#icon_square" />
        <use class="border" xlink:href="#icon_square" />
        <use class="symbol" xlink:href="#icon_ace" />
    </g>

    <g id="sym_sc" transform="translate(0,256)" clip-path="url(#clip_square)">
        <use class="background" xlink:href="#icon_square" />
        <use class="border" xlink:href="#icon_square" />
        <use class="symbol" xlink:href="#icon_scatter" />
    </g>

    <g id="sym_fs" transform="translate(256,256)" clip-path="url(#clip_square)">
        <use class="background" xlink:href="#icon_square" />
        <use class="border" xlink:href="#icon_square" />
        <use class="symbol" xlink:href="#icon_freespins" />
    </g>

    <g id="sym_apple" transform="translate(512,256)" clip-path="url(#clip_square)">
        <use class="background" xlink:href="#icon_square" />
        <use class="border" xlink:href="#icon_square" />
        <use class="symbol" xlink:href="#icon_apple" />
    </g>

    <g id="sym_banana" transform="translate(768,256)" clip-path="url(#clip_square)">
        <use class="background" xlink:href="#icon_square" />
        <use class="border" xlink:href="#icon_square" />
        <use class="symbol" xlink:href="#icon_banana" />
    </g>

    <g id="sym_grape" transform="translate(1024,256)" clip-path="url(#clip_square)">
        <use class="background" xlink:href="#icon_square" />
        <use class="border" xlink:href="#icon_square" />
        <use class="symbol" xlink:href="#icon_grape" />
    </g>

    <g id="sym_lemon" transform="translate(1280,256)" clip-path="url(#clip_square)">
        <use class="background" xlink:href="#icon_square" />
        <use class="border" xlink:href="#icon_square" />
        <use class="symbol" xlink:href="#icon_lemon" />
    </g>

    <g id="sym_cherry" transform="translate(1536,256)" clip-path="url(#clip_square)">
        <use class="background" xlink:href="#icon_square" />
        <use class="border" xlink:href="#icon_square" />
        <use class="symbol" xlink:href="#icon_cherry" />
    </g>

    <g id="sym_wild" transform="translate(1792,256)" clip-path="url(#clip_square)">
        <use class="background" xlink:href="#icon_square" />
        <use class="border" xlink:href="#icon_square" />
        <use class="symbol" xlink:href="#icon_wild" />
    </g>
</svg>