<?xml version="1.0" encoding="UTF-8" standalone="no"?>
<!-- Created with Inkscape (http://www.inkscape.org/) -->

<svg
   xmlns:dc="http://purl.org/dc/elements/1.1/"
   xmlns:cc="http://creativecommons.org/ns#"
   xmlns:rdf="http://www.w3.org/1999/02/22-rdf-syntax-ns#"
   xmlns:svg="http://www.w3.org/2000/svg"
   xmlns="http://www.w3.org/2000/svg"
   xmlns:sodipodi="http://sodipodi.sourceforge.net/DTD/sodipodi-0.dtd"
   xmlns:inkscape="http://www.inkscape.org/namespaces/inkscape"
   id="svg2"
   version="1.1"
   inkscape:version="0.91 r13725"
   width="256"
   height="256"
   viewBox="-257 -1 0 1"
   sodipodi:docname="symbols.svg">
  <metadata
     id="metadata8">
    <rdf:RDF>
      <cc:Work
         rdf:about="">
        <dc:format>image/svg+xml</dc:format>
        <dc:type
           rdf:resource="http://purl.org/dc/dcmitype/StillImage" />
        <dc:title></dc:title>
      </cc:Work>
    </rdf:RDF>
  </metadata>
  <defs
     id="defs6" />
  <sodipodi:namedview
     pagecolor="#ffffff"
     bordercolor="#666666"
     borderopacity="1"
     objecttolerance="10"
     gridtolerance="10"
     guidetolerance="10"
     inkscape:pageopacity="0"
     inkscape:pageshadow="2"
     inkscape:window-width="1366"
     inkscape:window-height="744"
     id="namedview4"
     showgrid="false"
     inkscape:zoom="0.16296602"
     inkscape:cx="-32.67185"
     inkscape:cy="607.95762"
     inkscape:window-x="0"
     inkscape:window-y="24"
     inkscape:window-maximized="1"
     inkscape:current-layer="svg2" />
  <path
     style="font-style:normal;font-variant:normal;font-weight:bold;font-stretch:normal;font-size:medium;line-height:125%;font-family:'DejaVu Sans';-inkscape-font-specification:'DejaVu Sans, Bold';text-align:start;letter-spacing:0px;word-spacing:0px;writing-mode:lr-tb;text-anchor:start;fill:#000000;fill-opacity:1;stroke:none;stroke-width:1px;stroke-linecap:butt;stroke-linejoin:miter;stroke-opacity:1"
     d="m -179.29676,55.551077 c -16.80502,0 -29.76628,5.7526 -38.88086,17.25977 -9.11459,11.45019 -13.67188,27.771483 -13.67188,48.962893 0,21.13444 4.55729,37.45573 13.67188,48.96289 9.11458,11.45019 22.07584,17.17383 38.88086,17.17383 16.74804,0 29.67838,-5.72364 38.79296,-17.17383 9.11458,-11.50716 13.67188,-27.82845 13.67188,-48.96289 0,-21.19141 -4.5573,-37.512703 -13.67188,-48.962893 -9.11458,-11.50717 -22.04492,-17.25977 -38.79296,-17.25977 z m -127.21679,2.30664 -29.65039,6.15235 0,22.38672 29.82226,-6.15235 0,82.458993 -29.05273,0 0,22.73046 89.20898,0 0,-22.73046 -29.05273,0 0,-104.845713 -31.27539,0 z m 127.21679,20.16602 c 7.0638,0 12.07682,3.27506 15.03906,9.82617 3.0192,6.49414 4.52734,17.717453 4.52734,33.667973 0,16.12142 -1.50814,27.48568 -4.52734,34.09375 -3.01921,6.60807 -8.03223,9.91211 -15.03906,9.91211 -7.06381,0 -12.1058,-3.30404 -15.125,-9.91211 -3.01921,-6.60807 -4.5293,-17.97233 -4.5293,-34.09375 0,-15.95052 1.51009,-27.173833 4.5293,-33.667973 3.0192,-6.55111 8.06119,-9.82617 15.125,-9.82617 z"
     id="sym_10"
     inkscape:connector-curvature="0" />
  <path
     inkscape:connector-curvature="0"
     id="sym_j"
     style="font-style:normal;font-variant:normal;font-weight:bold;font-stretch:normal;font-size:medium;line-height:125%;font-family:'DejaVu Sans';-inkscape-font-specification:'DejaVu Sans, Bold';text-align:start;letter-spacing:0px;word-spacing:0px;writing-mode:lr-tb;text-anchor:start;fill:#000000;fill-opacity:1;stroke:none;stroke-width:1px;stroke-linecap:butt;stroke-linejoin:miter;stroke-opacity:1"
     d="m -35.638759,57.857457 32.8979502,0 0,115.185553 q 0,23.84033 -12.9882802,35.63232 -12.90284,11.792 -39.135749,11.792 l -6.665039,0 0,-24.86573 5.126953,0 q 10.253906,0 15.466305,-5.72509 5.29786,-5.7251 5.29786,-16.8335 l 0,-115.185553 z" />
  <path
     inkscape:connector-curvature="0"
     id="sym_q"
     style="font-style:normal;font-variant:normal;font-weight:bold;font-stretch:normal;font-size:medium;line-height:125%;font-family:'DejaVu Sans';-inkscape-font-specification:'DejaVu Sans, Bold';text-align:start;letter-spacing:0px;word-spacing:0px;writing-mode:lr-tb;text-anchor:start;fill:#000000;fill-opacity:1;stroke:none;stroke-width:1px;stroke-linecap:butt;stroke-linejoin:miter;stroke-opacity:1"
     d="m 152.26408,187.74028 -2.56348,0 q -31.53076,0 -49.04785,-17.43165 -17.517095,-17.43164 -17.517095,-48.53515 0,-31.018073 17.431645,-48.620613 17.51709,-17.60254 48.19336,-17.60254 31.01807,0 48.27881,17.43164 17.34619,17.43165 17.34619,48.791513 0,21.5332 -9.22851,37.08496 -9.14307,15.55176 -26.40381,23.41309 l 25.72021,28.71093 -31.35986,0 -20.84961,-23.24218 z M 148.76066,79.390667 q -15.03906,0 -23.32763,11.10839 -8.28858,11.108403 -8.28858,31.274423 0,20.50781 8.11768,31.44531 8.11767,10.85205 23.49853,10.85205 15.12451,0 23.41309,-11.1084 8.28857,-11.10839 8.28857,-31.18896 0,-20.16602 -8.28857,-31.274423 -8.28858,-11.10839 -23.41309,-11.10839 z" />
  <path
     inkscape:connector-curvature="0"
     id="sym_k"
     style="font-style:normal;font-variant:normal;font-weight:bold;font-stretch:normal;font-size:medium;line-height:125%;font-family:'DejaVu Sans';-inkscape-font-specification:'DejaVu Sans, Bold';text-align:start;letter-spacing:0px;word-spacing:0px;writing-mode:lr-tb;text-anchor:start;fill:#000000;fill-opacity:1;stroke:none;stroke-width:1px;stroke-linecap:butt;stroke-linejoin:miter;stroke-opacity:1"
     d="m 300.00578,57.857457 32.89795,0 0,46.569833 47.42431,-46.569833 38.19581,0 -61.43799,60.412603 67.76123,67.16309 -41.18653,0 -50.75683,-50.24414 0,50.24414 -32.89795,0 0,-127.575693 z" />
  <path
     inkscape:connector-curvature="0"
     id="sym_a"
     style="font-style:normal;font-variant:normal;font-weight:bold;font-stretch:normal;font-size:medium;line-height:125%;font-family:'DejaVu Sans';-inkscape-font-specification:'DejaVu Sans, Bold';text-align:start;letter-spacing:0px;word-spacing:0px;writing-mode:lr-tb;text-anchor:start;fill:#000000;fill-opacity:1;stroke:none;stroke-width:1px;stroke-linecap:butt;stroke-linejoin:miter;stroke-opacity:1"
     d="m 573.95597,162.19096 -51.44043,0 -8.11767,23.24219 -33.06885,0 47.25342,-127.575693 39.22119,0 47.25342,127.575693 -33.06885,0 -8.03223,-23.24219 z m -43.2373,-23.66943 34.94873,0 -17.43164,-50.756843 -17.51709,50.756843 z" />
  <path
     inkscape:connector-curvature="0"
     id="sym_7"
     style="font-style:normal;font-variant:normal;font-weight:bold;font-stretch:normal;font-size:medium;line-height:125%;font-family:'DejaVu Sans';-inkscape-font-specification:'DejaVu Sans, Bold';text-align:start;letter-spacing:0px;word-spacing:0px;writing-mode:lr-tb;text-anchor:start;fill:#000000;fill-opacity:1;stroke:none;stroke-width:1px;stroke-linecap:butt;stroke-linejoin:miter;stroke-opacity:1"
     d="m -281.14639,350.73172 96.13037,0 0,18.54248 -49.73145,109.0332 -32.04345,0 47.08252,-103.39355 -61.43799,0 0,-24.18213 z" />
  <path
     inkscape:connector-curvature="0"
     id="sym_8"
     style="font-style:normal;font-variant:normal;font-weight:bold;font-stretch:normal;font-size:medium;line-height:125%;font-family:'DejaVu Sans';-inkscape-font-specification:'DejaVu Sans, Bold';text-align:start;letter-spacing:0px;word-spacing:0px;writing-mode:lr-tb;text-anchor:start;fill:#000000;fill-opacity:1;stroke:none;stroke-width:1px;stroke-linecap:butt;stroke-linejoin:miter;stroke-opacity:1"
     d="m -49.408112,421.22733 q -9.228515,0 -14.18457,5.0415 -4.956055,5.0415 -4.956055,14.44092 0,9.39941 4.956055,14.44092 4.956055,4.95605 14.18457,4.95605 9.143067,0 14.013672,-4.95605 4.870606,-5.04151 4.870606,-14.44092 0,-9.48487 -4.870606,-14.44092 -4.870605,-5.0415 -14.013672,-5.0415 z m -24.01123,-10.85206 q -11.621094,-3.50341 -17.51709,-10.7666 -5.895996,-7.26318 -5.895996,-18.11523 0,-16.1499 12.04834,-24.60938 12.04834,-8.45947 35.375976,-8.45947 23.156739,0 35.205079,8.45947 12.0483394,8.37403 12.0483394,24.60938 0,10.85205 -5.9814453,18.11523 -5.8959961,7.26319 -17.5170901,10.7666 12.988281,3.58887 19.5678713,11.70655 6.6650391,8.03222 6.6650391,20.33691 0,18.96973 -12.6464844,28.71094 -12.561035,9.65576 -37.341309,9.65576 -24.865722,0 -37.597656,-9.65576 -12.646484,-9.74121 -12.646484,-28.71094 0,-12.30469 6.57959,-20.33691 6.665039,-8.11768 19.65332,-11.70655 z m 7.69043,-25.54931 q 0,7.60498 4.187011,11.70654 4.272461,4.10156 12.133789,4.10156 7.69043,0 11.877442,-4.10156 4.187012,-4.10156 4.187012,-11.70654 0,-7.60498 -4.187012,-11.6211 -4.187012,-4.10156 -11.877442,-4.10156 -7.861328,0 -12.133789,4.10156 -4.187011,4.10157 -4.187011,11.6211 z" />
  <path
     inkscape:connector-curvature="0"
     id="sym_9"
     style="font-style:normal;font-variant:normal;font-weight:bold;font-stretch:normal;font-size:medium;line-height:125%;font-family:'DejaVu Sans';-inkscape-font-specification:'DejaVu Sans, Bold';text-align:start;letter-spacing:0px;word-spacing:0px;writing-mode:lr-tb;text-anchor:start;fill:#000000;fill-opacity:1;stroke:none;stroke-width:1px;stroke-linecap:butt;stroke-linejoin:miter;stroke-opacity:1"
     d="m 89.703217,475.48758 0,-23.58399 q 7.861328,3.67432 15.039063,5.5542 7.17773,1.79444 14.18457,1.79444 14.69726,0 22.90039,-8.11768 8.20312,-8.20312 9.65576,-24.26758 -5.81055,4.27246 -12.39014,6.4087 -6.57958,2.13623 -14.27001,2.13623 -19.56788,0 -31.616215,-11.36475 -11.962891,-11.4502 -11.962891,-30.07813 0,-20.59326 13.330078,-32.98339 13.415528,-12.39014 35.888668,-12.39014 24.95118,0 38.62305,16.8335 13.67188,16.83349 13.67188,47.59521 0,31.61621 -15.97901,49.73145 -15.979,18.02978 -43.83545,18.02978 -8.97217,0 -17.17529,-1.36719 -8.203125,-1.28173 -16.064453,-3.93066 z M 130.2916,414.04959 q 8.63037,0 12.98828,-5.5542 4.35791,-5.63965 4.35791,-16.83349 0,-11.1084 -4.35791,-16.74805 -4.35791,-5.63965 -12.98828,-5.63965 -8.63038,0 -12.98829,5.63965 -4.35791,5.63965 -4.35791,16.74805 0,11.19384 4.35791,16.83349 4.35791,5.5542 12.98829,5.5542 z" />
  <path
     style="font-style:normal;font-variant:normal;font-weight:bold;font-stretch:normal;font-size:medium;line-height:125%;font-family:'DejaVu Sans';-inkscape-font-specification:'DejaVu Sans, Bold';text-align:start;letter-spacing:0px;word-spacing:0px;writing-mode:lr-tb;text-anchor:start;fill:#000000;fill-opacity:1;stroke:none;stroke-width:1px;stroke-linecap:butt;stroke-linejoin:miter;stroke-opacity:1"
     d="m 414.57617,348.42383 c -15.38086,0 -27.17188,3.41796 -35.375,10.2539 -8.20312,6.83594 -12.30469,16.6071 -12.30469,29.31055 0,10.13997 2.93327,18.2002 8.80079,24.18164 5.92448,5.98145 15.26693,10.33985 28.02734,13.07422 l 12.73242,2.81836 c 7.74739,1.70899 12.90137,3.64583 15.46485,5.81055 2.62044,2.16471 3.93164,5.24088 3.93164,9.22851 0,4.44336 -1.90788,7.86133 -5.72461,10.25391 -3.81674,2.39258 -9.31446,3.58984 -16.49219,3.58984 -7.0638,0 -14.41341,-1.08333 -22.04688,-3.24804 -7.57649,-2.22168 -15.43782,-5.49675 -23.58398,-9.82618 l 0,27.77149 c 8.14616,3.0192 16.29329,5.29785 24.43945,6.83594 8.14616,1.53808 16.26432,2.30664 24.35352,2.30664 17.14681,0 29.87826,-3.41797 38.19531,-10.25391 8.37403,-6.8929 12.56055,-17.37467 12.56055,-31.44531 0,-10.70964 -2.99121,-18.96875 -8.97266,-24.7793 -5.98145,-5.81055 -16.06348,-10.13997 -30.24805,-12.98828 l -14.01367,-2.82031 c -6.66504,-1.36719 -11.28027,-2.99122 -13.84375,-4.8711 -2.5065,-1.93685 -3.75976,-4.61328 -3.75976,-8.03125 0,-4.55729 1.88086,-7.91927 5.64062,-10.08398 3.75976,-2.16471 9.57031,-3.2461 17.43164,-3.2461 5.92448,10e-6 12.21973,0.79753 18.88477,2.39258 6.66504,1.59506 13.50097,3.95866 20.50781,7.0918 l 0,-27.00195 c -7.9183,-2.10775 -15.58073,-3.67384 -22.98633,-4.69922 -7.4056,-1.08236 -14.6123,-1.625 -21.61914,-1.625 z m -143.80664,2.30859 0,127.57422 32.89844,0 0,-54.08789 52.55078,0 0,-24.86719 -52.55078,0 0,-23.7539 55.88476,0 0,-24.86524 -88.7832,0 z"
     id="sym_fs"
     inkscape:connector-curvature="0" />
  <path
     inkscape:connector-curvature="0"
     id="sym_w"
     style="font-style:normal;font-variant:normal;font-weight:bold;font-stretch:normal;font-size:medium;line-height:125%;font-family:'DejaVu Sans';-inkscape-font-specification:'DejaVu Sans, Bold';text-align:start;letter-spacing:0px;word-spacing:0px;writing-mode:lr-tb;text-anchor:start;fill:#000000;fill-opacity:1;stroke:none;stroke-width:1px;stroke-linecap:butt;stroke-linejoin:miter;stroke-opacity:1"
     d="m 566.50986,350.73172 31.53076,0 22.0459,92.7124 21.875,-92.7124 31.70166,0 21.875,92.7124 22.0459,-92.7124 31.27441,0 -30.07813,127.57568 -37.93945,0 -23.15674,-96.98486 -22.90039,96.98486 -37.93945,0 -30.33447,-127.57568 z" />
  <path
     style="font-style:normal;font-variant:normal;font-weight:bold;font-stretch:normal;font-size:medium;line-height:125%;font-family:'DejaVu Sans';-inkscape-font-specification:'DejaVu Sans, Bold';text-align:start;letter-spacing:0px;word-spacing:0px;writing-mode:lr-tb;text-anchor:start;fill:#000000;fill-opacity:1;stroke:none;stroke-width:1px;stroke-linecap:butt;stroke-linejoin:miter;stroke-opacity:1"
     d="m 875.49414,348.42383 c -15.38086,0 -27.17188,3.41796 -35.375,10.2539 -8.20313,6.83594 -12.30469,16.6071 -12.30469,29.31055 0,10.13997 2.93327,18.2002 8.80078,24.18164 5.92448,5.98145 15.26693,10.33985 28.02735,13.07422 l 12.73242,2.81836 c 7.7474,1.70899 12.90137,3.64583 15.46484,5.81055 2.62045,2.16471 3.93164,5.24088 3.93164,9.22851 0,4.44336 -1.90787,7.86133 -5.7246,10.25391 -3.81674,2.39258 -9.31446,3.58984 -16.49219,3.58984 -7.0638,0 -14.41341,-1.08333 -22.04688,-3.24804 -7.57649,-2.22168 -15.43782,-5.49675 -23.58398,-9.82618 l 0,27.77149 c 8.14616,3.0192 16.2933,5.29785 24.43945,6.83594 8.14616,1.53808 16.26432,2.30664 24.35352,2.30664 17.14681,0 29.87826,-3.41797 38.19531,-10.25391 8.37403,-6.8929 12.56055,-17.37467 12.56055,-31.44531 0,-10.70964 -2.99121,-18.96875 -8.97266,-24.7793 -5.98145,-5.81055 -16.06348,-10.13997 -30.24805,-12.98828 l -14.01367,-2.82031 c -6.66503,-1.36719 -11.28027,-2.99122 -13.84375,-4.8711 -2.50651,-1.93685 -3.75976,-4.61328 -3.75976,-8.03125 0,-4.55729 1.88086,-7.91927 5.64062,-10.08398 3.75977,-2.16471 9.57031,-3.2461 17.43164,-3.2461 5.92448,10e-6 12.21973,0.79753 18.88477,2.39258 6.66504,1.59506 13.50098,3.95866 20.50781,7.0918 l 0,-27.00195 c -7.91829,-2.10775 -15.58073,-3.67384 -22.98633,-4.69922 -7.40559,-1.08236 -14.6123,-1.625 -21.61914,-1.625 z m 129.72656,0 c -21.24836,0 -38.08333,5.95345 -50.50195,17.85937 -12.41862,11.84896 -18.62695,27.97136 -18.62695,48.36524 0,20.33691 6.20833,36.45736 18.62695,48.36328 12.41862,11.84896 29.25359,17.77344 50.50195,17.77344 7.1208,0 13.9567,-0.79753 20.5078,-2.39258 6.5511,-1.59506 12.8444,-3.95867 18.8828,-7.0918 l 0,-26.4043 c -6.0954,4.15853 -12.1048,7.20573 -18.0293,9.14258 -5.9244,1.93685 -12.1617,2.90625 -18.7129,2.90625 -11.73496,0 -20.96351,-3.75976 -27.68551,-11.27929 -6.722,-7.51953 -10.08398,-17.8584 -10.08398,-31.01758 0,-13.21615 3.36198,-23.58398 10.08398,-31.10352 6.722,-7.51953 15.95055,-11.2793 27.68551,-11.2793 6.5512,10e-6 12.7885,0.96745 18.7129,2.9043 5.9245,1.93685 11.9339,4.98405 18.0293,9.14258 l 0,-26.40234 c -6.0384,-3.13314 -12.3317,-5.4987 -18.8828,-7.09375 -6.5511,-1.59506 -13.387,-2.39258 -20.5078,-2.39258 z"
     id="sym_sc"
     inkscape:connector-curvature="0" />
  <path
     style="opacity:1;fill:#000000;fill-opacity:1;stroke:#000000;stroke-width:1;stroke-linejoin:round;stroke-miterlimit:4;stroke-dasharray:none;stroke-opacity:1"
     d="m 722.37272,-413.45481 a 15.18644,18.440678 35.062462 0 0 -21.75693,4.74288 c -3.66499,-1.14331 -7.45947,-1.9047 -11.34581,-2.2886 -9.34103,-0.92274 -19.20081,0.30843 -28.99841,3.50465 -9.79761,3.19623 -19.53379,8.35654 -28.62682,15.29293 -9.09303,6.9364 -17.54205,15.64834 -24.76936,25.9461 -7.22732,10.29777 -12.54905,21.20693 -15.98092,32.11651 -3.43186,10.90959 -4.9748,21.8202 -4.64975,32.12085 0.32505,10.30063 2.51926,19.99168 6.5627,28.46263 2.11096,4.42239 4.73053,8.50604 7.84694,12.17653 a 15.18644,18.440678 35.062462 0 0 4.47121,18.75776 15.18644,18.440678 35.062462 0 0 19.7665,-2.699 c 3.70088,1.16363 7.53454,1.93918 11.46192,2.32714 9.34103,0.92274 19.19921,-0.30954 28.99681,-3.50577 9.7976,-3.19622 19.53378,-8.35655 28.62682,-15.29293 9.09303,-6.93639 17.54477,-15.64881 24.77209,-25.94658 7.22731,-10.29776 12.54631,-21.20645 15.97819,-32.11603 3.43187,-10.90958 4.97481,-21.82019 4.64976,-32.12084 -0.32505,-10.30064 -2.51766,-19.99056 -6.56111,-28.46151 -1.97176,-4.13081 -4.38665,-7.96958 -7.23581,-11.44936 a 15.18644,18.440678 35.062462 0 0 -3.20802,-21.56736 z"
     id="sym_lemon"
     inkscape:connector-curvature="0" />
  <g
     id="sym_grape">
    <path
       id="path4979"
       d="m 65.636719,-419.01953 a 30.681244,30.681244 0 0 0 -30.681641,30.67969 30.681244,30.681244 0 0 0 30.681641,30.68164 30.681244,30.681244 0 0 0 30.68164,-30.68164 30.681244,30.681244 0 0 0 -30.68164,-30.67969 z m 62.363281,0 A 30.681244,30.681244 0 0 0 97.318359,-388.33984 30.681244,30.681244 0 0 0 128,-357.6582 30.681244,30.681244 0 0 0 158.67969,-388.33984 30.681244,30.681244 0 0 0 128,-419.01953 Z m 62.36133,0 a 30.681244,30.681244 0 0 0 -30.68164,30.67969 30.681244,30.681244 0 0 0 30.68164,30.68164 30.681244,30.681244 0 0 0 30.68359,-30.68164 30.681244,30.681244 0 0 0 -30.68359,-30.67969 z m -93.544924,54.36328 a 30.681244,30.681244 0 0 0 -30.679687,30.68164 30.681244,30.681244 0 0 0 30.679687,30.67969 30.681244,30.681244 0 0 0 30.681644,-30.67969 30.681244,30.681244 0 0 0 -30.681644,-30.68164 z m 62.363284,0 a 30.681244,30.681244 0 0 0 -30.68164,30.68164 30.681244,30.681244 0 0 0 30.68164,30.67969 30.681244,30.681244 0 0 0 30.68359,-30.67969 30.681244,30.681244 0 0 0 -30.68359,-30.68164 z M 128,-310.29492 A 30.681244,30.681244 0 0 0 97.318359,-279.61328 30.681244,30.681244 0 0 0 128,-248.93359 30.681244,30.681244 0 0 0 158.68164,-279.61328 30.681244,30.681244 0 0 0 128,-310.29492 Z"
       style="opacity:1;fill:#000000;fill-opacity:1;stroke:#000000;stroke-width:1;stroke-linejoin:round;stroke-miterlimit:4;stroke-dasharray:none;stroke-opacity:1"
       inkscape:connector-curvature="0" />
    <path
       inkscape:connector-curvature="0"
       id="path5151"
       d="m 110.04261,-454.75894 -3.13672,15.6875 17.87304,3.57422 -6.83007,39.27929 15.76367,2.74024 6.76172,-38.87891 20.66797,4.13281 3.13867,-15.68945 -54.23828,-10.8457 z"
       style="color:#000000;font-style:normal;font-variant:normal;font-weight:normal;font-stretch:normal;font-size:medium;line-height:normal;font-family:sans-serif;text-indent:0;text-align:start;text-decoration:none;text-decoration-line:none;text-decoration-style:solid;text-decoration-color:#000000;letter-spacing:normal;word-spacing:normal;text-transform:none;direction:ltr;block-progression:tb;writing-mode:lr-tb;baseline-shift:baseline;text-anchor:start;white-space:normal;clip-rule:nonzero;display:inline;overflow:visible;visibility:visible;opacity:1;isolation:auto;mix-blend-mode:normal;color-interpolation:sRGB;color-interpolation-filters:linearRGB;solid-color:#000000;solid-opacity:1;fill:#000000;fill-opacity:1;fill-rule:evenodd;stroke:none;stroke-width:16;stroke-linecap:butt;stroke-linejoin:miter;stroke-miterlimit:4;stroke-dasharray:none;stroke-dashoffset:0;stroke-opacity:1;color-rendering:auto;image-rendering:auto;shape-rendering:auto;text-rendering:auto;enable-background:accumulate" />
  </g>
  <g
     id="sym_apple">
    <path
       sodipodi:nodetypes="ccccszsccccssszsssc"
       inkscape:connector-curvature="0"
       id="path5116"
       d="m 917.45764,-407.53314 c -11.01115,0.008 -21.70636,3.68156 -30.39844,10.44123 -23.59665,14.15401 -31.55683,51.89623 -18.68822,88.60754 14.32969,40.78761 49.09151,65.72121 77.64304,55.69096 2.67202,-0.95543 5.23067,-2.20476 7.65419,-3.73418 2.4236,-1.52943 3.86808,-3.71388 6.84328,-3.71388 2.9752,0 4.41977,2.18445 6.84329,3.71388 2.42352,1.52942 4.98225,2.77875 7.65419,3.73418 28.55153,10.03032 63.31353,-14.90329 77.64313,-55.69096 12.9115,-36.84201 4.842,-74.6962 -18.9158,-88.73378 -8.6471,-6.66723 -19.2535,-10.29319 -30.1726,-10.31499 -4.45561,0.003 -8.82512,0.25898 -13.01059,0.88231 -4.1855,0.62333 -8.18693,1.61455 -11.90644,3.08963 -3.71952,1.47507 -7.15719,3.434 -10.21506,5.99275 -3.05795,2.55875 -3.4824,2.78565 -7.9367,2.78813 -4.4543,0.003 -4.87536,-0.225 -7.93092,-2.7824 -3.05557,-2.55742 -6.49053,-4.51559 -10.20715,-5.99057 -3.71662,-1.47498 -7.71499,-2.46677 -11.8974,-3.09139 -4.18241,-0.62463 -8.54886,-0.8821 -13.0018,-0.88846 z"
       style="opacity:1;fill:#000000;fill-opacity:1;stroke:#000000;stroke-width:0.8504464;stroke-linejoin:round;stroke-miterlimit:4;stroke-dasharray:none;stroke-opacity:1" />
    <path
       id="path5151-1"
       d="m 939.87294,-438.50503 -3.13672,15.6875 17.87304,3.57422 -6.83007,39.27929 15.76367,2.74024 6.76172,-38.87891 20.66797,4.13281 3.13867,-15.68945 -54.23828,-10.8457 z"
       style="color:#000000;font-style:normal;font-variant:normal;font-weight:normal;font-stretch:normal;font-size:medium;line-height:normal;font-family:sans-serif;text-indent:0;text-align:start;text-decoration:none;text-decoration-line:none;text-decoration-style:solid;text-decoration-color:#000000;letter-spacing:normal;word-spacing:normal;text-transform:none;direction:ltr;block-progression:tb;writing-mode:lr-tb;baseline-shift:baseline;text-anchor:start;white-space:normal;clip-rule:nonzero;display:inline;overflow:visible;visibility:visible;opacity:1;isolation:auto;mix-blend-mode:normal;color-interpolation:sRGB;color-interpolation-filters:linearRGB;solid-color:#000000;solid-opacity:1;fill:#000000;fill-opacity:1;fill-rule:evenodd;stroke:none;stroke-width:16;stroke-linecap:butt;stroke-linejoin:miter;stroke-miterlimit:4;stroke-dasharray:none;stroke-dashoffset:0;stroke-opacity:1;color-rendering:auto;image-rendering:auto;shape-rendering:auto;text-rendering:auto;enable-background:accumulate"
       inkscape:connector-curvature="0" />
  </g>
  <g
     id="sym_cherry">
    <circle
       r="32.982338"
       cy="-295.40115"
       cx="-215.53575"
       id="path5198"
       style="opacity:1;fill:#000000;fill-opacity:1;stroke:#000000;stroke-width:16;stroke-linejoin:round;stroke-miterlimit:4;stroke-dasharray:none;stroke-opacity:1" />
    <circle
       r="32.982338"
       cy="-295.40115"
       cx="-115.05466"
       id="path5198-6"
       style="opacity:1;fill:#000000;fill-opacity:1;stroke:#000000;stroke-width:16;stroke-linejoin:round;stroke-miterlimit:4;stroke-dasharray:none;stroke-opacity:1" />
    <path
       inkscape:connector-curvature="0"
       id="path5245"
       d="m -214.76871,-317.73926 c 56.7603,-42.95374 79.77124,-136.53153 79.77124,-136.53153"
       style="fill:none;fill-rule:evenodd;stroke:#000000;stroke-width:16;stroke-linecap:butt;stroke-linejoin:miter;stroke-miterlimit:4;stroke-dasharray:none;stroke-opacity:1" />
    <path
       inkscape:connector-curvature="0"
       id="path5247"
       d="m -150.6363,-409.95661 c -3.95352,59.69767 44.53243,93.65712 44.53243,93.65712"
       style="fill:none;fill-rule:evenodd;stroke:#000000;stroke-width:16;stroke-linecap:butt;stroke-linejoin:miter;stroke-miterlimit:4;stroke-dasharray:none;stroke-opacity:1" />
  </g>
  <g
     id="sym_banana">
    <path
       style="opacity:1;fill:#000000;fill-opacity:1;stroke:#000000;stroke-width:1;stroke-linejoin:round;stroke-miterlimit:4;stroke-dasharray:none;stroke-opacity:1"
       d="m 423.40304,-431.87798 -21.42187,11.34961 a 106.30508,106.30508 0 0 1 12.39257,49.54492 106.30508,106.30508 0 0 1 -106.30468,106.30469 106.30508,106.30508 0 0 1 -11.13282,-0.64063 l -8.53515,13.05078 a 112.81356,112.81356 0 0 0 60.88672,17.96289 112.81356,112.81356 0 0 0 112.81445,-112.8125 112.81356,112.81356 0 0 0 -38.69922,-84.75976 z"
       id="pathbanana"
       inkscape:connector-curvature="0" />
    <path
       inkscape:connector-curvature="0"
       id="path5249"
       d="M 434.13959,-400.57861 397.3221,-448.13454"
       style="fill:none;fill-rule:evenodd;stroke:#000000;stroke-width:16;stroke-linecap:butt;stroke-linejoin:miter;stroke-miterlimit:4;stroke-dasharray:none;stroke-opacity:1" />
  </g>
</svg>
